<?xml version="1.0" encoding="utf-8" ?>
<svg baseProfile="full" height="200mm" version="1.1" viewBox="0,0,200,200" width="200mm" xmlns="http://www.w3.org/2000/svg" xmlns:ev="http://www.w3.org/2001/xml-events" xmlns:xlink="http://www.w3.org/1999/xlink"><defs /><rect fill="#1a1a1a" height="200" width="200" x="0" y="0" /><text alignment-baseline="middle" fill="#e1ed5e" style="dominant-baseline: central; font-size:9.0px; font-family:Arial;" text-anchor="middle" x="100.0" y="100.0">2026</text><line stroke="#e1ed5e" stroke-width="0.3" x1="100.0" x2="100.0" y1="15.0" y2="10.0" /><path d="M 100.0 14.0 a86.0,86.0 0 0,1 42.46469731375804,11.215312516191453" fill="none" id="id133" stroke="none" /><text fill="#e1ed5e" style="font-size:6.75px; font-family:Arial;" text-anchor="middle"><textPath startOffset="22.20632615414155" xlink:href="#id133">January</textPath></text><path d="M 100.36148047927253 79.00311137660856 l 0.27755731943043255 -16.122143398770177 a37.12453242224649,37.12453242224649 0 0,0 0.6388484380116399,0.016499570367358815 l -0.5550323926369403 16.11497703626046" fill="#ffbe11" stroke="none" /><path d="M 101.44485096284872 79.0497635885617 l 1.7561216623368612 -25.463639461240042 a46.52412384206263,46.52412384206263 0 0,0 0.7984643173333705,0.06197619839967184 l -2.194176169032573 25.429638000651906" fill="#caff1d" stroke="none" /><path d="M 101.80526077348638 79.07773832637324 l 0.6365688653279846 -7.377582546124206 a28.404994540523408,28.404994540523408 0 0,0 0.4867735142987223,0.046225010546272524 l -0.7634675067169512 7.365531991062755" fill="#ff4606" stroke="none" /><path d="M 102.52436894288641 79.15227682838746 l 1.4153395383348881 -11.688706190191553 a32.77408333626853,32.77408333626853 0 0,0 0.559477436319462,0.07263622834420298 l -1.6163317031621962 11.662611638683213" fill="#ff830c" stroke="none" /><path d="M 103.2404852339499 79.25152402106235 l 0.913581483906232 -5.849563292262082 a26.92047479835159,26.92047479835159 0 0,0 0.4572260532117365,0.07544621644393548 l -1.0141367432568436 5.832970812878521" fill="#ff3004" stroke="none" /><path d="M 103.59715602781102 79.31037775812273 l 10.791468083433088 -62.06886672563182 a84.0,84.0 0 0,0 1.4224195155883965,0.2599380745970459 l -11.858282720124386 61.87391316968404" fill="#4dd2ff" stroke="none" /><path d="M 104.307194497241 79.44645832069477 l 1.654335286344766 -7.894338015432769 a29.06581663203128,29.06581663203128 0 0,0 0.4888002200962498,0.10683279575301714 l -1.7899782305945438 7.864691721583881" fill="#ff4f07" stroke="none" /><path d="M 105.36241919743992 79.69619591428918 l 1.7359724857761392 -6.572937316465366 a27.798316367863055,27.798316367863055 0 0,0 0.4615872187381388,0.12616922343933756 l -1.8488575937379887 6.542081552199735" fill="#ff3d05" stroke="none" /><path d="M 105.71112130821622 79.79150937346287 l 5.624421534208917 -19.901708214503813 a41.68120178929942,41.68120178929942 0 0,0 0.6887516551395567,0.20106549494917894 l -5.9661634070719005 19.80194439063593" fill="#fff817" stroke="none" /><path d="M 106.0581310904928 79.89281104454417 l 0.9361499320281063 -3.1071205447281107 a24.245084709943292,24.245084709943292 0 0,0 0.39855989913048273,0.1238345007500181 l -0.9894952038693072 3.0905459090955723" fill="#ff0901" stroke="none" /><path d="M 107.08798089147638 80.2323363322302 l 0.8958652612086172 -2.498477838238355 a23.654235497164596,23.654235497164596 0 0,0 0.3820921309988542,0.14072775645501814 l -0.9387397179800478 2.482686813977012" fill="#ff0000" stroke="none" /><path d="M 107.4271985657038 80.35727306442388 l 2.6189174330337357 -6.926256185130939 a28.404846606318905,28.404846606318905 0 0,0 0.455852928663407,0.1768638542212399 l -2.7377535266968094 6.880149627019153" fill="#ff4606" stroke="none" /><path d="M 108.09893153111575 80.62456947434976 l 7.506837477155554 -17.958937848427187 a40.464738825684194,40.464738825684194 0 0,0 0.6403376165975097,0.2741591495705111 l -7.814858851543379 17.827059170893886" fill="#ffe915" stroke="none" /><path d="M 108.43124777332544 80.76684994638697 l 5.540432433088771 -12.63869491353728 a34.79974639850657,34.79974639850657 0 0,0 0.5465513635737491,0.2452216652456921 l -5.7571659151293 12.541452917775056" fill="#ff9f0e" stroke="none" /><path d="M 108.76106565485865 80.91482961587045 l 2.5947146790290403 -5.652345696097883 a27.219449825648972,27.219449825648972 0 0,0 0.42413319330427157,0.19913622126157854 l -2.69162608363291 5.606844492196301" fill="#ff3505" stroke="none" /><path d="M 109.08828744355905 81.06846463323043 l 6.490966226992204 -13.521134477089916 a35.99845725758163,35.99845725758163 0 0,0 0.5563111296848615,0.27297945530365153 l -6.722748623687497 13.407399861651433" fill="#ffaf10" stroke="none" /><path d="M 109.73455568895987 81.39251694778311 l 6.436581072009801 -12.30344527665234 a34.8854003029129,34.8854003029129 0 0,0 0.529684890020311,0.28293932409943895 l -6.647411008558423 12.190827226051146" fill="#ffa00e" stroke="none" /><path d="M 110.05341064243156 81.56283822128135 l 1.9863196667132397 -3.6427535233540356 a25.14911063365151,25.14911063365151 0 0,0 0.3782856300206114,0.2105155435453087 l -2.048729385805886 3.608022582248547" fill="#ff1602" stroke="none" /><path d="M 110.36928655335952 81.73862282372117 l 9.834806825904117 -17.32010355577351 a40.91756542566306,40.91756542566306 0 0,0 0.6094832459386245,0.3530520354690854 l -10.13148680430807 17.148247362914375" fill="#ffef16" stroke="none" /><line stroke="#e1ed5e" stroke-width="0.3" x1="143.23703022742887" x2="145.7803849466894" y1="26.81831364943548" y2="22.513508569990506" /><path d="M 143.74570117128098 25.957352633546492 a86.0,86.0 0 0,1 28.547481713284135,27.462654790039103" fill="none" id="id134" stroke="none" /><text fill="#e1ed5e" style="font-size:6.75px; font-family:Arial;" text-anchor="middle"><textPath startOffset="19.985693538727396" xlink:href="#id134">February</textPath></text><path d="M 110.68208982089419 81.91981866633111 l 7.11125956996332 -12.036302323936294 a34.98007819379381,34.98007819379381 0 0,0 0.5157694826415138,0.3107453423073817 l -7.317391118822471 11.912110372170298" fill="#ffa10e" stroke="none" /><path d="M 110.99172775467656 82.1063720568725 l 5.861067526064506 -9.541335448044043 a32.197731675530974,32.197731675530974 0 0,0 0.4697508724971242,0.29415795326267136 l -6.024437550933893 9.439033153458428" fill="#ff7b0b" stroke="none" /><path d="M 111.2981086023043 82.29822771554956 l 7.5215135455050195 -11.78463800478817 a34.98037406220281,34.98037406220281 0 0,0 0.5047717519641781,0.32831758861725313 l -7.723252323253478 11.653421492011388" fill="#ffa10e" stroke="none" /><path d="M 111.90073688211348 82.69761687909136 l 5.036110499681731 -7.3219594860288355 a29.88670353280969,29.88670353280969 0 0,0 0.4213582026933447,0.2951883482154935 l -5.161399841958727 7.2341862950494065" fill="#ff5b08" stroke="none" /><path d="M 112.19680574252982 82.90503203632743 l 1.8207355182272502 -2.5519317115859628 a24.134873727589728,24.134873727589728 0 0,0 0.3361122314687386,0.24419983034481887 l -1.8643930660497774 2.520212646424469" fill="#ff0701" stroke="none" /><path d="M 112.48926042617603 83.11751280151076 l 15.87897002217272 -21.46456227004991 a47.69960903103096,47.69960903103096 0 0,0 0.6558783605681696,0.49399398339553796 l -16.24609453649927 21.188051697148524" fill="#bdff1f" stroke="none" /><path d="M 112.77801427241765 83.33499621200491 l 2.844459518920768 -3.709725756053996 a25.674720862245078,25.674720862245078 0 0,0 0.34840283814804035,0.2719339414487925 l -2.907894912228239 3.6602134253819796" fill="#ff1e03" stroke="none" /><path d="M 113.34407831869373 83.78471172551755 l 4.711200853624685 -5.724897451590373 a28.414166461202495,28.414166461202495 0 0,0 0.3749891465862524,0.3140426261554502 l -4.809047537170056 5.642953668041104" fill="#ff4606" stroke="none" /><line stroke="#e1ed5e" stroke-width="0.3" x1="172.23445277983987" x2="176.4835382374775" y1="55.19839476539836" y2="52.563006222186495" /><path d="M 173.08426987136738 54.67131705675599 a86.0,86.0 0 0,1 12.851231095245387,41.99856678651699" fill="none" id="id135" stroke="none" /><text fill="#e1ed5e" style="font-size:6.75px; font-family:Arial;" text-anchor="middle"><textPath startOffset="22.20632615414155" xlink:href="#id135">March</textPath></text><line stroke="#e1ed5e" stroke-width="0.3" x1="184.98032266829074" x2="189.97916517819016" y1="98.17113171792111" y2="98.06355123074" /><path d="M 185.9800911702706 98.14961562048488 a86.0,86.0 0 0,1 -9.607161424134198,41.387399972396054" fill="none" id="id136" stroke="none" /><text fill="#e1ed5e" style="font-size:6.75px; font-family:Arial;" text-anchor="middle"><textPath startOffset="21.466115282336823" xlink:href="#id136">April</textPath></text><line stroke="#e1ed5e" stroke-width="0.3" x1="174.80103733775053" x2="179.2010983576182" y1="140.37084112569926" y2="142.7455964860345" /><path d="M 175.68104954172406 140.8457921977663 a86.0,86.0 0 0,1 -30.038265399797805,32.042727171017184" fill="none" id="id137" stroke="none" /><text fill="#e1ed5e" style="font-size:6.75px; font-family:Arial;" text-anchor="middle"><textPath startOffset="22.206326154141568" xlink:href="#id137">May</textPath></text><line stroke="#e1ed5e" stroke-width="0.3" x1="143.8653032363475" x2="146.44561519142675" y1="172.8068346515853" y2="177.08958963109032" /><path d="M 144.38136562736335 173.6633856474863 a86.0,86.0 0 0,1 -40.68145358897372,12.25698825130547" fill="none" id="id138" stroke="none" /><text fill="#e1ed5e" style="font-size:6.75px; font-family:Arial;" text-anchor="middle"><textPath startOffset="21.466115282336833" xlink:href="#id138">June</textPath></text><line stroke="#e1ed5e" stroke-width="0.3" x1="102.19456741930631" x2="102.32365962044197" y1="184.97166512339345" y2="189.96999836594603" /><path d="M 102.22038585953345 185.97133177190398 a86.0,86.0 0 0,1 -42.740103519485714,-10.115201625700543" fill="none" id="id139" stroke="none" /><text fill="#e1ed5e" style="font-size:6.75px; font-family:Arial;" text-anchor="middle"><textPath startOffset="22.20632615414155" xlink:href="#id139">July</textPath></text><line stroke="#e1ed5e" stroke-width="0.3" x1="58.666819895761336" x2="56.23545636021788" y1="174.27360380694188" y2="178.64263932499728" /><path d="M 58.180547188652646 175.14741091055294 a86.0,86.0 0 0,1 -31.652253787137756,-30.449443065178592" fill="none" id="id140" stroke="none" /><text fill="#e1ed5e" style="font-size:6.75px; font-family:Arial;" text-anchor="middle"><textPath startOffset="22.20632615414155" xlink:href="#id140">August</textPath></text><line stroke="#e1ed5e" stroke-width="0.3" x1="26.63291911575756" x2="22.317208475507996" y1="142.92168965132927" y2="145.44649492493687" /><path d="M 25.769776987707644 143.4266507060508 a86.0,86.0 0 0,1 -11.730757126820373,-40.83630448921669" fill="none" id="id141" stroke="none" /><text fill="#e1ed5e" style="font-size:6.75px; font-family:Arial;" text-anchor="middle"><textPath startOffset="21.46611528233685" xlink:href="#id141">September</textPath></text><line stroke="#e1ed5e" stroke-width="0.3" x1="15.007084014347285" x2="10.007500721073583" y1="101.09737516637583" y2="101.16192664675087" /><path d="M 14.007167355692545 101.11028546245083 a86.0,86.0 0 0,1 10.666146001902534,-42.60595125391555" fill="none" id="id142" stroke="none" /><text fill="#e1ed5e" style="font-size:6.75px; font-family:Arial;" text-anchor="middle"><textPath startOffset="22.20632615414155" xlink:href="#id142">October</textPath></text><line stroke="#e1ed5e" stroke-width="0.3" x1="26.266209847984243" x2="21.928928074336255" y1="57.711370442889674" y2="55.22380399835377" /><path d="M 25.398753493254645 57.213857153982495 a86.0,86.0 0 0,1 29.58750427330803,-30.492523968695096" fill="none" id="id143" stroke="none" /><text fill="#e1ed5e" style="font-size:6.75px; font-family:Arial;" text-anchor="middle"><textPath startOffset="21.46611528233685" xlink:href="#id143">November</textPath></text><line stroke="#e1ed5e" stroke-width="0.3" x1="56.762969772571076" x2="54.21961505331055" y1="26.818313649435495" y2="22.513508569990535" /><path d="M 56.25429882871897 25.957352633546506 a86.0,86.0 0 0,1 42.265352541879196,-11.944610805530505" fill="none" id="id144" stroke="none" /><text fill="#e1ed5e" style="font-size:6.75px; font-family:Arial;" text-anchor="middle"><textPath startOffset="22.20632615414155" xlink:href="#id144">December</textPath></text></svg>