<?xml version="1.0" encoding="utf-8" ?>
<svg baseProfile="full" height="200mm" version="1.1" viewBox="0,0,200,200" width="200mm" xmlns="http://www.w3.org/2000/svg" xmlns:ev="http://www.w3.org/2001/xml-events" xmlns:xlink="http://www.w3.org/1999/xlink"><defs /><rect fill="#1a1a1a" height="200" width="200" x="0" y="0" /><text alignment-baseline="middle" fill="#e1ed5e" style="dominant-baseline: central; font-size:9.0px; font-family:Arial;" text-anchor="middle" x="100.0" y="100.0">2026</text><line stroke="#e1ed5e" stroke-width="0.3" x1="100.0" x2="100.0" y1="15.0" y2="10.0" /><path d="M 100.0 14.0 a86.0,86.0 0 0,1 42.46469731375804,11.215312516191453" fill="none" id="id133" stroke="none" /><text fill="#e1ed5e" style="font-size:6.75px; font-family:Arial;" text-anchor="middle"><textPath startOffset="22.20632615414155" xlink:href="#id133">January</textPath></text><path d="M 100.36148047927253 79.00311137660856 l 0.22489810845017144 -13.063390156621749 a34.065325925644046,34.065325925644046 0 0,0 0.5862048310920711,0.015139941314395276 l -0.4497295747371104 13.057583423164994" fill="#ff9c0e" stroke="none" /><path d="M 101.44485096284872 79.0497635885617 l 1.4229437035866803 -20.632582707030313 a41.68159176528788,41.68159176528788 0 0,0 0.7153549807239811,0.05552531434292307 l -1.7778888736730027 20.605032130498927" fill="#fffe18" stroke="none" /><path d="M 101.80526077348638 79.07773832637324 l 0.5157966433899732 -5.977880039204658 a27.000091327676092,27.000091327676092 0 0,0 0.46269783024282063,0.04393873424589473 l -0.6186196007230381 5.9681157604435855" fill="#ff3b05" stroke="none" /><path d="M 102.52436894288641 79.15227682838746 l 1.146816036555781 -9.471081208733072 a30.54026028387686,30.54026028387686 0 0,0 0.5213444523479354,0.06768547260073084 l -1.3096752174115625 9.449937412968204" fill="#ff6d0a" stroke="none" /><path d="M 103.2404852339499 79.25152402106235 l 0.740253393667429 -4.739762303472717 a25.797220213858974,25.797220213858974 0 0,0 0.43814833395653985,0.0722982293026217 l -0.821730933762844 4.726317811230471" fill="#ff2904" stroke="none" /><path d="M 103.59715602781102 79.31037775812273 l 8.744070465678359 -50.29292957896266 a72.04740477187107,72.04740477187107 0 0,0 1.220019459464357,0.22295075804897835 l -9.608485046245617 50.13496333956294" fill="#3effb5" stroke="none" /><path d="M 104.307194497241 79.44645832069477 l 1.3404686188957222 -6.396594731424856 a27.535539784618898,27.535539784618898 0 0,0 0.4630655342522934,0.10120819019127233 l -1.4503768773015437 6.372573043137713" fill="#ff4206" stroke="none" /><path d="M 105.36241919743992 79.69619591428918 l 1.4066173040356478 -5.325895106884821 a26.508514403135585,26.508514403135585 0 0,0 0.44017023456747817,0.12031515263423195 l -1.4980854278268367 5.300893413424295" fill="#ff3404" stroke="none" /><path d="M 105.71112130821622 79.79150937346287 l 4.557335280387154 -16.12588182345155 a37.75748696677955,37.75748696677955 0 0,0 0.6239151110310814,0.18213792978881152 l -4.834240609141662 16.045045564744036" fill="#ffcd13" stroke="none" /><path d="M 106.0581310904928 79.89281104454417 l 0.7585400715460053 -2.5176260336782925 a23.629415122341033,23.629415122341033 0 0,0 0.3884390349772704,0.12068989899177275 l -0.801764479233994 2.5041959998039993" fill="#ff0a01" stroke="none" /><path d="M 107.08798089147638 80.2323363322302 l 0.7258983588884812 -2.0244572940016314 a23.15066402831158,23.15066402831158 0 0,0 0.37395782897639673,0.1377318243719484 l -0.7606385136374543 2.0116622018233588" fill="#ff0300" stroke="none" /><path d="M 107.4271985657038 80.35727306442388 l 2.122046639177502 -5.612181000572296 a26.99997146010122,26.99997146010122 0 0,0 0.43330690126583965,0.16811634586453528 l -2.2183367054430088 5.574821950817213" fill="#ff3b05" stroke="none" /><path d="M 108.09893153111575 80.62456947434976 l 6.082612242111288 -14.55170110510378 a36.77181589862628,36.77181589862628 0 0,0 0.5818986513646585,0.24913863446294762 l -6.332194651266261 14.444842942678042" fill="#ffc011" stroke="none" /><path d="M 108.43124777332544 80.76684994638697 l 4.489280905128331 -10.240834524436911 a32.18160698656722,32.18160698656722 0 0,0 0.5054318781259174,0.22677255072948121 l -4.664894901721029 10.162041643190898" fill="#ff830c" stroke="none" /><path d="M 108.76106565485865 80.91482961587045 l 2.102435722030333 -4.579961566019873 a26.039472582670573,26.039472582670573 0 0,0 0.4057467997769782,0.1905035629658934 l -2.180960733106909 4.543093020413977" fill="#ff2d04" stroke="none" /><path d="M 109.08828744355905 81.06846463323043 l 5.259475878568505 -10.955854359157307 a33.15289394573614,33.15289394573614 0 0,0 0.512336507959394,0.25140129940265 l -5.447283653538331 10.863697899619824" fill="#ff900d" stroke="none" /><path d="M 109.73455568895987 81.39251694778311 l 5.215408878251558 -9.969189700410114 a32.25101031241676,32.25101031241676 0 0,0 0.48968544726574303,0.2615730070483754 l -5.386239372045612 9.877937966859985" fill="#ff840c" stroke="none" /><path d="M 110.05341064243156 81.56283822128135 l 1.6094676830641068 -2.9516367236636962 a24.36192587236957,24.36192587236957 0 0,0 0.3664450250902045,0.2039262597210882 l -1.6600367972263466 2.9234950663824284" fill="#ff1502" stroke="none" /><path d="M 110.36928655335952 81.73862282372117 l 7.968910553890287 -14.034068839718952 a37.13873054530233,37.13873054530233 0 0,0 0.5531960126981089,0.3204468368866648 l -8.209303299053724 13.894817845442237" fill="#ffc512" stroke="none" /><line stroke="#e1ed5e" stroke-width="0.3" x1="143.23703022742887" x2="145.7803849466894" y1="26.81831364943548" y2="22.513508569990506" /><path d="M 143.74570117128098 25.957352633546492 a86.0,86.0 0 0,1 28.547481713284135,27.462654790039103" fill="none" id="id134" stroke="none" /><text fill="#e1ed5e" style="font-size:6.75px; font-family:Arial;" text-anchor="middle"><textPath startOffset="19.985693538727396" xlink:href="#id134">February</textPath></text><path d="M 110.68208982089419 81.91981866633111 l 5.762084852472373 -9.752730106136328 a32.32772556033335,32.32772556033335 0 0,0 0.47666143554213736,0.2871831815129331 l -5.929108354232148 9.65210031516478" fill="#ff850c" stroke="none" /><path d="M 110.99172775467656 82.1063720568725 l 4.749083911083871 -7.731117661595336 a30.07325621218463,30.07325621218463 0 0,0 0.4387557013912013,0.27474877995964486 l -4.881458764847335 7.6482245403127465" fill="#ff6609" stroke="none" /><path d="M 111.2981086023043 82.29822771554956 l 6.094503911976281 -9.548812481276137 a32.32796529548308,32.32796529548308 0 0,0 0.4664971178015624,0.3034227018796742 l -6.257968055562124 9.442490855236933" fill="#ff850c" stroke="none" /><path d="M 111.90073688211348 82.69761687909136 l 4.080640811954338 -5.9328099937548435 a28.200684957570683,28.200684957570683 0 0,0 0.3975878408737347,0.27853569069710665 l -4.182159792411723 5.8616894602938014" fill="#ff4c07" stroke="none" /><path d="M 112.19680574252982 82.90503203632743 l 1.4752987774836337 -2.067769698912737 a23.54011377906313,23.54011377906313 0 0,0 0.3278293584881775,0.23818197087037474 l -1.5106734523256 2.042068493225688" fill="#ff0801" stroke="none" /><path d="M 112.48926042617603 83.11751280151076 l 12.866352540988215 -17.392225372226502 a42.63405951520225,42.63405951520225 0 0,0 0.5862261269480314,0.4415333650750889 l -13.163824821694629 17.168175417645568" fill="#f4ff19" stroke="none" /><path d="M 112.77801427241765 83.33499621200491 l 2.304798038405558 -3.005902734316251 a24.787815365881503,24.787815365881503 0 0,0 0.33636763847595536,0.2625402772055562 l -2.356198232040944 2.965784067887471" fill="#ff1b02" stroke="none" /><path d="M 113.34407831869373 83.78471172551755 l 3.8173742370883157 -4.638748531568048 a27.007523117318012,27.007523117318012 0 0,0 0.3564253084460519,0.29849594558043707 l -3.896657082493485 4.572351428593792" fill="#ff3b05" stroke="none" /><path d="M 113.89432698308785 84.25364557470407 l 4.122537068997428 -4.672045641279967 a27.230836409300203,27.230836409300203 0 0,0 0.3487997996510866,0.3131559040422431 l -4.202347856244504 4.600390728468427" fill="#ff3e05" stroke="none" /><path d="M 114.16331599549186 84.49514656593476 l 2.9422336599942756 -3.2209195700713695 a25.36246051980669,25.36246051980669 0 0,0 0.3197990282480601,0.2972183437994007 l -2.9972405720371826 3.1697966401973283" fill="#ff2303" stroke="none" /><path d="M 114.68862486808459 84.99185889309783 l 12.043621567416258 -12.305602025050822 a38.2184976597283,38.2184976597283 0 0,0 0.4662005177053027,0.46419850452423944 l -12.253657885288883 12.096467669876464" fill="#ffd313" stroke="none" /><path d="M 114.94478906791727 85.2469230424477 l 4.2730756915604395 -4.218260574742436 a27.0044065603714,27.0044065603714 0 0,0 0.3237130556540803,0.33361475903246307 l -4.345053010917629 4.1440816201598585" fill="#ff3b05" stroke="none" /><path d="M 115.19652480421416 85.50635884689758 l 6.895425298448571 -6.5764917414554755 a30.52875299668937,30.52875299668937 0 0,0 0.35941454096541753,0.3833983728477485 l -7.007607161384452 6.456823951729673" fill="#ff6c0a" stroke="none" /><path d="M 115.68641384162765 86.03803664274999 l 1.8208393311199447 -1.6206694708685818 a23.437627002549565,23.437627002549565 0 0,0 0.2656355202397298,0.3036673193767367 l -1.8484667149375227 1.5890865952888973" fill="#ff0701" stroke="none" /><path d="M 116.15771136456269 86.58626213691792 l 10.930849447817483 -9.074524591113555 a35.20670497355303,35.20670497355303 0 0,0 0.3830850083560887,0.4696169237633053 l -11.08543294824998 8.885023497742148" fill="#ffac0f" stroke="none" /><path d="M 116.60985879189232 87.15038557335679 l 9.197395647103052 -7.115231337923767 a32.62835343810647,32.62835343810647 0 0,0 0.33983837751357865,0.44718746940102205 l -9.318509964840745 6.955859092641711" fill="#ff890c" stroke="none" /><path d="M 117.04232023915458 87.72973835380427 l 7.830718845456665 -5.6380215700204195 a30.649219909433388,30.649219909433388 0 0,0 0.3045764479978251,0.4308017858460921 l -7.926607913258373 5.502393283842534" fill="#ff6e0a" stroke="none" /><path d="M 117.2510076193507 88.02491185347247 l 4.963398284148892 -3.4454295813037032 a27.042044978880476,27.042044978880476 0 0,0 0.2621475598088447,0.3846691967096074 l -5.02197030962647 3.3594823613236895" fill="#ff3b05" stroke="none" /><line stroke="#e1ed5e" stroke-width="0.3" x1="172.23445277983987" x2="176.4835382374775" y1="55.19839476539836" y2="52.563006222186495" /><path d="M 173.08426987136738 54.67131705675599 a86.0,86.0 0 0,1 12.851231095245387,41.99856678651699" fill="none" id="id135" stroke="none" /><text fill="#e1ed5e" style="font-size:6.75px; font-family:Arial;" text-anchor="middle"><textPath startOffset="22.20632615414155" xlink:href="#id135">March</textPath></text><path d="M 117.84615892207809 88.93136811851018 l 8.850075842784031 -5.489037279941218 a31.414094904676737,31.414094904676737 0 0,0 0.281057721129809,0.4619849943854949 l -8.943249362200065 5.335884512348643" fill="#ff790b" stroke="none" /><path d="M 118.21658344932153 89.55222093294921 l 24.960476465579454 -14.315612158898416 a49.77433121503862,49.77433121503862 0 0,0 0.41986392545350576,0.7468910737059997 l -25.203198032325393 13.883837575257623" fill="#a0ff22" stroke="none" /><path d="M 118.56541770881063 90.18545643968196 l 15.326377900927724 -8.10223642095406 a38.33620761825031,38.33620761825031 0 0,0 0.30338647974135646,0.5860461128832918 l -15.463573813829196 7.837217585810424" fill="#ffd413" stroke="none" /><path d="M 118.89224826269711 90.83032412892265 l 18.79548291332465 -9.122709153460729 a41.89243882948362,41.89243882948362 0 0,0 0.3092894943093755,0.6514425536706 l -18.949730601475782 8.797824184149588" fill="#fdff18" stroke="none" /><path d="M 119.04729006885535 91.15688171328212 l 16.55111585110997 -7.6842151675874835 a39.247920392709005,39.247920392709005 0 0,0 0.27921658907989194,0.6152167424761232 l -16.680934757153207 7.398176416269298" fill="#ffe015" stroke="none" /><path d="M 119.85752413597 93.16781622104841 l 30.787814515146987 -10.592861702166191 a53.55914989154838,53.55914989154838 0 0,0 0.2924398604689688,0.8743579603542007 l -30.965591669387727 10.061330638889677" fill="#77ff27" stroke="none" /><path d="M 120.28053869075195 94.5502522615342 l 5.267121144806958 -1.415370764299595 a26.453974656569883,26.453974656569883 0 0,0 0.11438656835364738,0.44077810908447257 l -5.290704045030908 1.3244962296662721" fill="#ff3304" stroke="none" /><path d="M 120.45610955862082 95.25157060432595 l 1.9219199551061616 -0.44613083366639666 a22.97302028235473,22.97302028235473 0 0,0 0.08610026874939775,0.3859706222374382 l -1.929314610857597 0.41298204187899457" fill="#ff0000" stroke="none" /><path d="M 120.53481517161879 95.60439243477599 l 61.60444551485638 -13.186822695672053 a84.0,84.0 0 0,0 0.2904828163400124,1.4164973753463528 l -61.822307627111385 12.124449664162288" fill="#4dd2ff" stroke="none" /><path d="M 120.6074358757038 95.95851677861258 l 7.550348385168104 -1.4807570674167834 a28.694179763309105,28.694179763309105 0 0,0 0.09088440928366048,0.48550814853018176 l -7.574718518361624 1.350570841424039" fill="#ff5307" stroke="none" /><path d="M 120.83666639777658 97.38593545837742 l 5.3400746865963535 -0.6699392129893379 a26.381934244073214,26.381934244073214 0 0,0 0.05265035958341133,0.45107612787792767 l -5.350815399183354 0.5779193467865575" fill="#ff3204" stroke="none" /><path d="M 120.91429891909075 98.10471618934814 l 16.15500065941366 -1.4639893658069616 a37.22119943681267,37.22119943681267 0 0,0 0.052332148868067876,0.6385847686627447 l -16.17780729210122 1.185690679936448" fill="#ffc612" stroke="none" /><line stroke="#e1ed5e" stroke-width="0.3" x1="184.98032266829074" x2="189.97916517819016" y1="98.17113171792111" y2="98.06355123074" /><path d="M 185.9800911702706 98.14961562048488 a86.0,86.0 0 0,1 -9.607161424134198,41.387399972396054" fill="none" id="id136" stroke="none" /><text fill="#e1ed5e" style="font-size:6.75px; font-family:Arial;" text-anchor="middle"><textPath startOffset="21.466115282336823" xlink:href="#id136">April</textPath></text><path d="M 120.99980553446 99.90962569577887 l 5.016291688106184 -0.02158800329550252 a26.016338140720727,26.016338140720727 0 0,0 -0.0019273184648916843,0.4478409357008816 l -5.01592007235179 -0.06476241060906385" fill="#ff2d04" stroke="none" /><path d="M 120.9904718944345 100.63252640178507 l 11.983475500994425 0.3611097776955316 a32.98891510331443,32.98891510331443 0 0,0 -0.021989259571387233,0.56744508245907 l -11.975484108571836 -0.5673321071686078" fill="#ff8e0d" stroke="none" /><path d="M 120.9764740272857 100.99374915477107 l 3.1139036494593744 0.14751950759997182 a24.11739601963545,24.11739601963545 0 0,0 -0.023214313364162308,0.4145071596107579 l -3.1109029852076824 -0.20109838354615306" fill="#ff1101" stroke="none" /><path d="M 120.95626037817324 101.35467743843564 l 5.989507989207488 0.3871803076449794 a27.002009208874007,27.002009208874007 0 0,0 -0.03397552410836648,0.4635690327790796 l -5.981955906434783 -0.49022247692082926" fill="#ff3b05" stroke="none" /><path d="M 120.92983693683757 101.71520430193887 l 11.96809316086296 0.9807876161417909 a33.00821378286845,33.00821378286845 0 0,0 -0.051281252420889975,0.5658843472666779 l -11.949437312164996 -1.1866533519570392" fill="#ff8e0d" stroke="none" /><path d="M 120.89721153311464 102.0752229133903 l 11.930948778805847 1.1848173257484187 a32.98963430876365,32.98963430876365 0 0,0 -0.06098007991372104,0.5645998052497777 l -11.908786397391074 -1.390013452882988" fill="#ff8e0d" stroke="none" /><path d="M 120.8583938346157 102.4346265915055 l 5.9742761000828475 0.6973274919240927 a27.01483503938506,27.01483503938506 0 0,0 -0.05788699070084247,0.4614162714039145 l -5.961387600135157 -0.8000615176154021" fill="#ff3b05" stroke="none" /><path d="M 120.81339534386255 102.79330883721812 l 16.38523242413442 2.199017208583596 a37.53213592602458,37.53213592602458 0 0,0 -0.09144606438233131,0.6395735613035547 l -16.344952308735483 -2.4807362418675605" fill="#ffca12" stroke="none" /><path d="M 120.76222939487914 103.15116336523771 l 22.311713176196438 3.3863344749414295 a43.56722858556262,43.56722858556262 0 0,0 -0.11891414808881784,0.7404785136614872 l -22.25011727374633 -3.7698922182961216" fill="#e9ff1a" stroke="none" /><path d="M 120.70491114924044 103.5080841355445 l 2.6070035106421194 0.4417110313138408 a23.644158834050003,23.644158834050003 0 0,0 -0.07144314266275108,0.4006910849392346 l -2.59901392564018 -0.48652086698629377" fill="#ff0a01" stroke="none" /><path d="M 120.64145759157962 103.86396538481128 l 11.033349610887825 2.0653813223143147 a32.22499904867004,32.22499904867004 0 0,0 -0.10675692112738737,0.5443512408459158 l -10.996162756784774 -2.254996290228175" fill="#ff840c" stroke="none" /><path d="M 120.49622156327973 104.57218783832717 l 9.386386576221486 2.0938650773820937 a30.617095399368317,30.617095399368317 0 0,0 -0.11917257384736385,0.5133923290984115 l -9.348953436443571 -2.25512606382907" fill="#ff6e0a" stroke="none" /><path d="M 120.41448212921028 104.9243191809786 l 6.6963680763308755 1.615277505079896 a27.888429925035197,27.888429925035197 0 0,0 -0.11658517188062545,0.4656998084584006 l -6.667571590155189 -1.7303051529356925" fill="#ff4706" stroke="none" /><path d="M 120.23288151984713 105.62410040840565 l 36.416530491528185 10.122642383350854 a58.797243045777996,58.797243045777996 0 0,0 -0.27944751365553483,0.9727934551045604 l -36.23689034098655 -10.747993313959997" fill="#40ff2d" stroke="none" /><path d="M 120.13307415673323 105.97154293290107 l 5.656781701878132 1.6778220023352632 a26.900361505384527,26.900361505384527 0 0,0 -0.13549228843696706,0.442796638143351 l -5.627062640935033 -1.7749456130306713" fill="#ff3905" stroke="none" /><line stroke="#e1ed5e" stroke-width="0.3" x1="174.80103733775053" x2="179.2010983576182" y1="140.37084112569926" y2="142.7455964860345" /><path d="M 175.68104954172406 140.8457921977663 a86.0,86.0 0 0,1 -30.038265399797805,32.042727171017184" fill="none" id="id137" stroke="none" /><text fill="#e1ed5e" style="font-size:6.75px; font-family:Arial;" text-anchor="middle"><textPath startOffset="22.206326154141568" xlink:href="#id137">May</textPath></text><line stroke="#e1ed5e" stroke-width="0.3" x1="143.8653032363475" x2="146.44561519142675" y1="172.8068346515853" y2="177.08958963109032" /><path d="M 144.38136562736335 173.6633856474863 a86.0,86.0 0 0,1 -40.68145358897372,12.25698825130547" fill="none" id="id138" stroke="none" /><text fill="#e1ed5e" style="font-size:6.75px; font-family:Arial;" text-anchor="middle"><textPath startOffset="21.466115282336833" xlink:href="#id138">June</textPath></text><line stroke="#e1ed5e" stroke-width="0.3" x1="102.19456741930631" x2="102.32365962044197" y1="184.97166512339345" y2="189.96999836594603" /><path d="M 102.22038585953345 185.97133177190398 a86.0,86.0 0 0,1 -42.740103519485714,-10.115201625700543" fill="none" id="id139" stroke="none" /><text fill="#e1ed5e" style="font-size:6.75px; font-family:Arial;" text-anchor="middle"><textPath startOffset="22.20632615414155" xlink:href="#id139">July</textPath></text><line stroke="#e1ed5e" stroke-width="0.3" x1="58.666819895761336" x2="56.23545636021788" y1="174.27360380694188" y2="178.64263932499728" /><path d="M 58.180547188652646 175.14741091055294 a86.0,86.0 0 0,1 -31.652253787137756,-30.449443065178592" fill="none" id="id140" stroke="none" /><text fill="#e1ed5e" style="font-size:6.75px; font-family:Arial;" text-anchor="middle"><textPath startOffset="22.20632615414155" xlink:href="#id140">August</textPath></text><line stroke="#e1ed5e" stroke-width="0.3" x1="26.63291911575756" x2="22.317208475507996" y1="142.92168965132927" y2="145.44649492493687" /><path d="M 25.769776987707644 143.4266507060508 a86.0,86.0 0 0,1 -11.730757126820373,-40.83630448921669" fill="none" id="id141" stroke="none" /><text fill="#e1ed5e" style="font-size:6.75px; font-family:Arial;" text-anchor="middle"><textPath startOffset="21.46611528233685" xlink:href="#id141">September</textPath></text><line stroke="#e1ed5e" stroke-width="0.3" x1="15.007084014347285" x2="10.007500721073583" y1="101.09737516637583" y2="101.16192664675087" /><path d="M 14.007167355692545 101.11028546245083 a86.0,86.0 0 0,1 10.666146001902534,-42.60595125391555" fill="none" id="id142" stroke="none" /><text fill="#e1ed5e" style="font-size:6.75px; font-family:Arial;" text-anchor="middle"><textPath startOffset="22.20632615414155" xlink:href="#id142">October</textPath></text><line stroke="#e1ed5e" stroke-width="0.3" x1="26.266209847984243" x2="21.928928074336255" y1="57.711370442889674" y2="55.22380399835377" /><path d="M 25.398753493254645 57.213857153982495 a86.0,86.0 0 0,1 29.58750427330803,-30.492523968695096" fill="none" id="id143" stroke="none" /><text fill="#e1ed5e" style="font-size:6.75px; font-family:Arial;" text-anchor="middle"><textPath startOffset="21.46611528233685" xlink:href="#id143">November</textPath></text><line stroke="#e1ed5e" stroke-width="0.3" x1="56.762969772571076" x2="54.21961505331055" y1="26.818313649435495" y2="22.513508569990535" /><path d="M 56.25429882871897 25.957352633546506 a86.0,86.0 0 0,1 42.265352541879196,-11.944610805530505" fill="none" id="id144" stroke="none" /><text fill="#e1ed5e" style="font-size:6.75px; font-family:Arial;" text-anchor="middle"><textPath startOffset="22.20632615414155" xlink:href="#id144">December</textPath></text></svg>