<?xml version="1.0" encoding="utf-8" ?>
<svg baseProfile="full" height="200mm" version="1.1" viewBox="0,0,200,200" width="200mm" xmlns="http://www.w3.org/2000/svg" xmlns:ev="http://www.w3.org/2001/xml-events" xmlns:xlink="http://www.w3.org/1999/xlink"><defs /><rect fill="#1a1a1a" height="200" width="200" x="0" y="0" /><text alignment-baseline="middle" fill="#e1ed5e" style="dominant-baseline: central; font-size:9.0px; font-family:Arial;" text-anchor="middle" x="100.0" y="100.0">2025</text><line stroke="#e1ed5e" stroke-width="0.3" x1="100.0" x2="100.0" y1="15.0" y2="10.0" /><path d="M 100.0 14.0 a86.0,86.0 0 0,1 42.46469731375804,11.215312516191453" fill="none" id="id121" stroke="none" /><text fill="#e1ed5e" style="font-size:6.75px; font-family:Arial;" text-anchor="middle"><textPath startOffset="22.20632615414155" xlink:href="#id121">January</textPath></text><path d="M 100.36148047927253 79.00311137660856 l 0.05265809382137615 -3.058688351062943 a24.059141595901217,24.059141595901217 0 0,0 0.41401585489685433,0.010692808066235581 l -0.10530058391309828 3.057328750854347" fill="#ff2303" stroke="none" /><path d="M 101.44485096284872 79.0497635885617 l 1.72108442532187 -24.955602011328665 a46.01487963886528,46.01487963886528 0 0,0 0.7897244789122904,0.06129781872983898 l -2.150399093596502 24.92227893041036" fill="#c2ff1e" stroke="none" /><path d="M 102.88285421437855 79.19881850522331 l 0.9786043195184068 -7.061101446041334 a28.12859172946993,28.12859172946993 0 0,0 0.47903128282459106,0.07059675890129596 l -1.1000045827716536 7.04321020297907" fill="#ff5c08" stroke="none" /><path d="M 103.59715602781102 79.31037775812273 l 1.0738373318968486 -6.176348363651891 a27.269003567119796,27.269003567119796 0 0,0 0.4617614624347714,0.08438395575496542 l -1.179993915434521 6.156948926546186" fill="#ff5007" stroke="none" /><path d="M 103.95276090670814 79.375362276772 l 2.049471269134383 -10.693690675377388 a31.888312667427428,31.888312667427428 0 0,0 0.5382042454643454,0.1079587084774826 l -2.2332419240658536 10.656828010822696" fill="#ff8e0d" stroke="none" /><path d="M 106.0581310904928 79.89281104454417 l 9.464010735602566 -31.4114450966336 a53.806194266669024,53.806194266669024 0 0,0 0.8845088237915636,0.2748211971203721 l -10.003304932104848 31.243883764630706" fill="#6dff28" stroke="none" /><path d="M 108.09893153111575 80.62456947434976 l 2.7288561285331405 -6.528362677194375 a28.07574554483253,28.07574554483253 0 0,0 0.4442869646044783,0.19022049185311166 l -2.8408268509279337 6.4804226573784725" fill="#ff5b08" stroke="none" /><path d="M 108.76106565485865 80.91482961587045 l 3.533959716635884 -7.698404050338579 a29.470790765983693,29.470790765983693 0 0,0 0.45921356518383216,0.2156069262354641 l -3.665951493119314 7.6364321414631116" fill="#ff6e0a" stroke="none" /><path d="M 109.73455568895987 81.39251694778311 l 2.7313593738205424 -5.220959731682422 a26.892261412124103,26.892261412124103 0 0,0 0.4083205124433964,0.21811067671241494 l -2.82082493279225 5.173170328468252" fill="#ff4b07" stroke="none" /><path d="M 110.05341064243156 81.56283822128135 l 2.8190238733461497 -5.16986732757016 a26.88849928107094,26.88849928107094 0 0,0 0.4044490097092482,0.22507543601554492 l -2.907596972127433 5.120576493994435" fill="#ff4b07" stroke="none" /><path d="M 110.36928655335952 81.73862282372117 l 5.008887491530798 -8.82116462359256 a31.14405733517583,31.14405733517583 0 0,0 0.4639029951776266,0.2687225576733235 l -5.159987219173753 8.733637908529188" fill="#ff850c" stroke="none" /><line stroke="#e1ed5e" stroke-width="0.3" x1="143.23703022742887" x2="145.7803849466894" y1="26.81831364943548" y2="22.513508569990506" /><path d="M 143.74570117128098 25.957352633546492 a86.0,86.0 0 0,1 28.547481713284135,27.462654790039103" fill="none" id="id122" stroke="none" /><text fill="#e1ed5e" style="font-size:6.75px; font-family:Arial;" text-anchor="middle"><textPath startOffset="19.985693538727396" xlink:href="#id122">February</textPath></text><path d="M 110.68208982089419 81.91981866633111 l 2.996444738684807 -5.0716915079454274 a26.890733046383755,26.890733046383755 0 0,0 0.39649481039882667,0.23888368685457942 l -3.083301615301271 5.0193612116322335" fill="#ff4b07" stroke="none" /><path d="M 110.99172775467656 82.1063720568725 l 3.130653714232014 -5.096446530656114 a26.981200541552795,26.981200541552795 0 0,0 0.39364395675880454,0.2464998096093974 l -3.217916823363082 5.041802379723773" fill="#ff4c07" stroke="none" /><path d="M 111.2981086023043 82.29822771554956 l 3.8934421633830856 -6.100209247840723 a28.236811780546088,28.236811780546088 0 0,0 0.4074611931537313,0.2650240942976451 l -3.997870382321097 6.0322862293835495" fill="#ff5d08" stroke="none" /><path d="M 111.60114157652 82.49532879139004 l 4.872134588582558 -7.3514415365678865 a29.819375721378364,29.819375721378364 0 0,0 0.4254164277072618,0.28724307100595686 l -4.9979557106963615 7.26648655326326" fill="#ff730a" stroke="none" /><path d="M 111.90073688211348 82.69761687909136 l 4.3792741397044885 -6.366990523968142 a28.727652316388504,28.727652316388504 0 0,0 0.40501729922620167,0.2837405010584148 l -4.488222578514341 6.290665180145791" fill="#ff6409" stroke="none" /><path d="M 112.19680574252982 82.90503203632743 l 3.424821782431987 -4.800209160322263 a26.896728942749732,26.896728942749732 0 0,0 0.37457496924141753,0.27214464508018815 l -3.5069420680271928 4.740545280425399" fill="#ff4b07" stroke="none" /><path d="M 112.48926042617603 83.11751280151076 l 4.206386705860975 -5.686026817469164 a28.072806379947245,28.072806379947245 0 0,0 0.3860062293812368,0.2907318892215683 l -4.303639089000595 5.612778338741749" fill="#ff5b08" stroke="none" /><path d="M 114.16331599549186 84.49514656593476 l 1.983886842378874 -2.1717989438804945 a23.941516217192156,23.941516217192156 0 0,0 0.3018821306814431,0.28056654016526716 l -2.020976856855164 2.1373278176405868" fill="#ff2103" stroke="none" /><path d="M 114.68862486808459 84.99185889309783 l 6.256281629643999 -6.392372216287737 a29.944466578896048,29.944466578896048 0 0,0 0.36527144383805993,0.3637028521753367 l -6.3653888736493816 6.283733513462282" fill="#ff750a" stroke="none" /><path d="M 116.38621287248628 86.86637796730983 l 9.221972048967379 -7.391451351796923 a32.81855835361979,32.81855835361979 0 0,0 0.34951126936075905,0.443843818663051 l -9.347837398922103 7.231615139180834" fill="#ff9b0e" stroke="none" /><path d="M 117.04232023915458 87.72973835380427 l 2.102165978817259 -1.513533733778641 a23.59034479669843,23.59034479669843 0 0,0 0.2344289168355285,0.33158307771529283 l -2.1279075154566707 1.477124155731555" fill="#ff1c02" stroke="none" /><path d="M 117.2510076193507 88.02491185347247 l 2.4160485798766302 -1.6771423066245377 a23.941104734108215,23.941104734108215 0 0,0 0.23208681851080462,0.34055876815538266 l -2.444559864056168 1.6353055151987486" fill="#ff2103" stroke="none" /><path d="M 117.45458315368197 88.32363383020206 l 7.478888392679668 -5.003054994043686 a29.998018163105925,29.998018163105925 0 0,0 0.28341465410258554,0.43165996216001185 l -7.563899682140178 4.873576967906" fill="#ff750a" stroke="none" /><line stroke="#e1ed5e" stroke-width="0.3" x1="172.23445277983987" x2="176.4835382374775" y1="55.19839476539836" y2="52.563006222186495" /><path d="M 173.08426987136738 54.67131705675599 a86.0,86.0 0 0,1 12.851231095245387,41.99856678651699" fill="none" id="id123" stroke="none" /><text fill="#e1ed5e" style="font-size:6.75px; font-family:Arial;" text-anchor="middle"><textPath startOffset="22.20632615414155" xlink:href="#id123">March</textPath></text><path d="M 117.84615892207809 88.93136811851018 l 10.839396849931656 -6.722863674650228 a33.75497628607125,33.75497628607125 0 0,0 0.3020012749226637,0.496410690084264 l -10.953513923140545 6.535285211358883" fill="#ffa70f" stroke="none" /><path d="M 118.03404312379186 89.2402003453031 l 6.0629168308620915 -3.6173679953721543 a28.060050404345112,28.060050404345112 0 0,0 0.24390908262800862,0.4169196865020514 l -6.124285587960427 3.5124688965162076" fill="#ff5b08" stroke="none" /><path d="M 118.21658344932153 89.55222093294921 l 2.552452806265849 -1.4639113351374682 a23.942456749955447,23.942456749955447 0 0,0 0.20196301247338175,0.35926966355161727 l -2.5772734600316634 1.419758161651057" fill="#ff2103" stroke="none" /><path d="M 118.56541770881063 90.18545643968196 l 3.1862867632962626 -1.684419425650475 a24.604121548930564,24.604121548930564 0 0,0 0.19471299556257934,0.37612353152517936 l -3.2148091920189583 1.6293231718649506" fill="#ff2b04" stroke="none" /><path d="M 118.73160827565052 90.50648371742162 l 3.2732726616350396 -1.6589535107322106 a24.669664925872397,24.669664925872397 0 0,0 0.1887111740064716,0.38043021148512096 l -3.3013438485949194 1.6023637107481397" fill="#ff2c04" stroke="none" /><path d="M 119.04729006885535 91.15688171328212 l 4.986390385785151 -2.3150400842244743 a26.497590351328174,26.497590351328174 0 0,0 0.18850850497822866,0.4153535029702928 l -5.025501207726726 2.2288645724121188" fill="#ff4506" stroke="none" /><path d="M 119.47837535516314 92.15188598940014 l 2.9512728484359516 -1.1891097367508936 a24.181822338212967,24.181822338212967 0 0,0 0.15223775660602548,0.38742848519643347 l -2.971304154923678 1.1381322466586756" fill="#ff2503" stroke="none" /><path d="M 119.61058180528143 92.48833698450437 l 7.551936641023412 -2.8927037313326567 a29.086994615263315,29.086994615263315 0 0,0 0.175069650173677,0.46909962331152644 l -7.600610879698714 2.762280970991797" fill="#ff6909" stroke="none" /><path d="M 119.7369772167798 92.82701384747503 l 2.795651121473796 -1.0160201616169378 a23.974552430502747,23.974552430502747 0 0,0 0.137621830212419,0.38907544636547203 l -2.8127260324960246 0.9677470888248512" fill="#ff2203" stroke="none" /><path d="M 119.97218684219823 93.5106431181261 l 6.310025308090437 -2.0502515063266964 a27.63475324544453,27.63475324544453 0 0,0 0.14310132727908856,0.4536703134387607 l -6.344382119137732 1.9413310264615165" fill="#ff5507" stroke="none" /><path d="M 120.08093135843002 93.85539295169968 l 2.8092389797652695 -0.859605031625148 a23.937812869436698,23.937812869436698 0 0,0 0.11717457138198538,0.3950544041003564 l -2.823619448258957 0.8111212407782616" fill="#ff2103" stroke="none" /><path d="M 120.18372546131832 94.20196356495316 l 0.6471889225004779 -0.18591339642465526 a21.67336267521855,21.67336267521855 0 0,0 0.09991753491782647,0.3594565350800098 l -0.6502932279846675 0.17474555792569355" fill="#ff0100" stroke="none" /><path d="M 120.28053869075195 94.5502522615342 l 0.5923316927797478 -0.15917024455667256 a21.61334492826105,21.61334492826105 0 0,0 0.09345576190659491,0.3601231736306746 l -0.5949837865566454 0.14895064537714753" fill="#ff0000" stroke="none" /><path d="M 120.37134235888165 94.90015583598534 l 4.9981717342799055 -1.2512625089086027 a26.15241482720043,26.15241482720043 0 0,0 0.10556509387234315,0.43763546657370245 l -5.0189696284130685 1.1650418106754943" fill="#ff4106" stroke="none" /><path d="M 120.45610955862082 95.25157060432595 l 2.866248459456762 -0.6653356250946659 a23.942456749955447,23.942456749955447 0 0,0 0.08973360643725935,0.4022581626661954 l -2.877276452896059 0.6158992928785066" fill="#ff2103" stroke="none" /><path d="M 120.53481517161879 95.60439243477599 l 1.204172614905695 -0.25776079364135807 a22.23145130363626,22.23145130363626 0 0,0 0.07687922126197738,0.3748903859731073 l -1.2084311320826693 0.23699475150483895" fill="#ff0901" stroke="none" /><path d="M 120.6074358757038 95.95851677861258 l 4.852702705926517 -0.9517009628309031 a25.945144919490208,25.945144919490208 0 0,0 0.08217726344636588,0.4389942273002706 l -4.868365693282742 0.8680286580680697" fill="#ff3e05" stroke="none" /><path d="M 120.67395015179393 96.31383870115 l 6.7529802212761565 -1.204055062569048 a27.859481792573337,27.859481792573337 0 0,0 0.08011344021260686,0.47283405909663306 l -6.7727055230089865 1.0876352151565771" fill="#ff5808" stroke="none" /><path d="M 120.83666639777658 97.38593545837742 l 3.5011987422027664 -0.43924298208001444 a24.528643794676473,24.528643794676473 0 0,0 0.04895175251121906,0.4193887211846587 l -3.508240847717574 0.378910522570503" fill="#ff2a04" stroke="none" /><path d="M 120.87857604477298 97.74499172005257 l 8.316321515087422 -0.8982113452091504 a29.364686913624944,29.364686913624944 0 0,0 0.04995195333314896,0.5030093531444836 l -8.3305505941028 0.7549264613602317" fill="#ff6d0a" stroke="none" /><path d="M 120.96714384426684 98.82574320788733 l 29.825464895809795 -1.6703636409400158 a50.8722023115832,50.8722023115832 0 0,0 0.04143999156032231,0.8747327255400215 l -29.849798495603615 1.1567198087769945" fill="#8cff24" stroke="none" /><line stroke="#e1ed5e" stroke-width="0.3" x1="184.98032266829074" x2="189.97916517819016" y1="98.17113171792111" y2="98.06355123074" /><path d="M 185.9800911702706 98.14961562048488 a86.0,86.0 0 0,1 -9.607161424134198,41.387399972396054" fill="none" id="id124" stroke="none" /><text fill="#e1ed5e" style="font-size:6.75px; font-family:Arial;" text-anchor="middle"><textPath startOffset="21.466115282336823" xlink:href="#id124">April</textPath></text><path d="M 120.9904718944345 100.63252640178507 l 11.751619100782676 0.35412302221455255 a32.75695345762424,32.75695345762424 0 0,0 -0.021834642033292585,0.5634550908284333 l -11.74378232589818 -0.5563553600569919" fill="#ff9a0e" stroke="none" /><path d="M 120.9764740272857 100.99374915477107 l 2.9406870150527853 0.1393134628752994 a23.943985115695792,23.943985115695792 0 0,0 -0.0230473958801379,0.4115267358046787 l -2.937853268285118 -0.18991191501540142" fill="#ff2203" stroke="none" /><path d="M 120.95626037817324 101.35467743843564 l 2.69224024096373 0.17403472983570642 a23.697859448202117,23.697859448202117 0 0,0 -0.029818047567159035,0.40684356850479464 l -2.688845634732233 -0.22035143483727132" fill="#ff1e03" stroke="none" /><path d="M 120.8583938346157 102.4346265915055 l 4.44470375735408 0.518793251523533 a25.47487853784478,25.47487853784478 0 0,0 -0.0545871945868036,0.4351136496766672 l -4.435115053520429 -0.5952246554875951" fill="#ff3705" stroke="none" /><path d="M 120.81339534386255 102.79330883721812 l 2.917358964728827 0.3915307638605693 a23.94351484931415,23.94351484931415 0 0,0 -0.05833774567920266,0.40801405740625596 l -2.910187168033023 -0.4416902932472346" fill="#ff2203" stroke="none" /><path d="M 120.70491114924044 103.5080841355445 l 5.797814824379067 0.9823380578464869 a26.88044596928526,26.88044596928526 0 0,0 -0.08122190134573165,0.45553555678083163 l -5.780046480694147 -1.0819923653605368" fill="#ff4b07" stroke="none" /><path d="M 120.64145759157962 103.86396538481128 l 7.2619215265812525 1.3593910837659273 a28.388061205542797,28.388061205542797 0 0,0 -0.09404568194097912,0.4795369060867292 l -7.23744591166461 -1.4841917169206014" fill="#ff5f08" stroke="none" /><path d="M 120.5718875245553 104.21870165774334 l 4.60138087901683 0.9436106978052525 a25.69713818646995,25.69713818646995 0 0,0 -0.09259041251952714,0.4325515823557226 l -4.584456427772859 -1.0226760995771442" fill="#ff3a05" stroke="none" /><path d="M 120.41448212921028 104.9243191809786 l 1.2371172398776742 0.29841365139173376 a22.272599612030234,22.272599612030234 0 0,0 -0.09310867843678436,0.3719228870565411 l -1.231797247145829 -0.3196643778456708" fill="#ff0a01" stroke="none" /><path d="M 120.32669344350535 105.2749913415812 l 0.6549594952143588 0.16996889710293875 a21.676654539890066,21.676654539890066 0 0,0 -0.09683469813627786,0.36035793515700176 l -0.6519367207363037 -0.18121776543548873" fill="#ff0100" stroke="none" /><path d="M 120.23288151984713 105.62410040840565 l 2.8340642433884664 0.7877801218305843 a23.941516217192156,23.941516217192156 0 0,0 -0.1137876001231732,0.3961095635594873 l -2.8200840063791937 -0.8364471608946535" fill="#ff2103" stroke="none" /><path d="M 120.13307415673323 105.97154293290107 l 3.281193665455822 0.9732139608634791 a24.422481159020016,24.422481159020016 0 0,0 -0.12301165026655772,0.4020091904775616 l -3.2639552426831315 -1.0295501238930977" fill="#ff2803" stroke="none" /><path d="M 119.9155931802556 106.66101706037122 l 2.7920738714957603 0.9338437235345906 a23.944102682291206,23.944102682291206 0 0,0 -0.13409742953686798,0.38974989984951597 l -2.7755856110156616 -0.9817663264734069" fill="#ff2203" stroke="none" /><path d="M 119.79798401119884 107.00284435728193 l 2.7737013783111153 0.9810998450601794 a23.942104050169213,23.942104050169213 0 0,0 -0.14077471384211418,0.3873515521596867 l -2.7564024034637744 -1.0286991942259973" fill="#ff2103" stroke="none" /><path d="M 119.54520255179757 107.68017299344265 l 5.704061723335878 2.2413776825487597 a27.128629052198633,27.128629052198633 0 0,0 -0.17452413636823755,0.43315459384571503 l -5.664634972710248 -2.3392316442372882" fill="#ff4e07" stroke="none" /><path d="M 119.26925614724726 108.34839909993367 l 10.78858130956444 4.674149422586594 a32.757600073899,32.757600073899 0 0,0 -0.22861515874463867,0.5154668303298657 l -10.70652506608853 -4.859164589409147" fill="#ff9a0e" stroke="none" /><path d="M 119.12269723197855 108.67885076344098 l 10.965709303199565 4.976795553641605 a33.042228801389896,33.042228801389896 0 0,0 -0.23951742570273984,0.5158992264932002 l -10.878417260656994 -5.164814847413636" fill="#ff9e0e" stroke="none" /><path d="M 118.97047184881838 109.00673069616215 l 2.7547845445679573 1.3079064514897003 a24.049501135077485,24.049501135077485 0 0,0 -0.1807683540101292,0.37243635107870676 l -2.7318629339431135 -1.3551317585336826" fill="#ff2303" stroke="none" /><path d="M 118.64920377521936 109.65438752849418 l 3.7624745516704987 1.9477714880348636 a25.236747398839075,25.236747398839075 0 0,0 -0.20303262731408647,0.3840612160349059 l -3.728389416131519 -2.012247719155904" fill="#ff3404" stroke="none" /><line stroke="#e1ed5e" stroke-width="0.3" x1="174.80103733775053" x2="179.2010983576182" y1="140.37084112569926" y2="142.7455964860345" /><path d="M 175.68104954172406 140.8457921977663 a86.0,86.0 0 0,1 -30.038265399797805,32.042727171017184" fill="none" id="id125" stroke="none" /><text fill="#e1ed5e" style="font-size:6.75px; font-family:Arial;" text-anchor="middle"><textPath startOffset="22.206326154141568" xlink:href="#id125">May</textPath></text><path d="M 118.48025628344425 109.97397251340804 l 6.582955345051374 3.5528844763562972 a28.48052733283383,28.48052733283383 0 0,0 -0.23655599229082375,0.42941783834058667 l -6.5208229433090406 -3.665672833094689" fill="#ff6108" stroke="none" /><path d="M 118.30583269289576 110.29060199501025 l 8.4819480430004 4.768116966716679 a30.73028170262556,30.73028170262556 0 0,0 -0.26317999151867916,0.4588764987203201 l -8.398616055329342 -4.913413311295315" fill="#ff7f0b" stroke="none" /><path d="M 118.12598468904814 110.60418214915192 l 4.0792103752858315 2.386446341333245 a25.72600078564344,25.72600078564344 0 0,0 -0.22690225415731413,0.38030122936093286 l -4.03752724543029 -2.456309664580282" fill="#ff3b05" stroke="none" /><path d="M 117.75023020441432 111.22182372390056 l 7.0492760144120306 4.456603204795571 a29.339880361993146,29.339880361993146 0 0,0 -0.27355266114178317,0.4245598048999266 l -6.971518489893198 -4.577284609616951" fill="#ff6c0a" stroke="none" /><path d="M 117.14729908036423 112.12312394758627 l 2.4945936006580647 1.7636752749162903 a24.055085548359525,24.055085548359525 0 0,0 -0.24194857923557786,0.3360454151374682 l -2.463865229046884 -1.8063542955048897" fill="#ff2303" stroke="none" /><path d="M 116.71984013943494 112.70617746262583 l 6.518477573519 4.953691670767264 a29.187161354553794,29.187161354553794 0 0,0 -0.30742862458969267,0.3973929390778178 l -6.432242131711239 -5.065162603958335" fill="#ff6a09" stroke="none" /><path d="M 116.498646956653 112.99209946851258 l 12.814975991667664 10.091339199376538 a37.311307013967095,37.311307013967095 0 0,0 -0.40168658065143115,0.5011657714979392 l -12.63937149896138 -10.310432804452727" fill="#ffd413" stroke="none" /><path d="M 116.0416608686014 113.55231037782055 l 1.934773983386054 1.6345350863950843 a23.532795948244573,23.532795948244573 0 0,0 -0.2640799826641077,0.30718468048441155 l -1.9063514911511676 -1.6675968660410239" fill="#ff1c02" stroke="none" /><path d="M 115.56566222782051 114.09645910891815 l 2.286718105275688 2.0708806212580266 a24.085065030189423,24.085065030189423 0 0,0 -0.2809391996572154,0.30490401506210046 l -2.2507324976227507 -2.1099358911214616" fill="#ff2403" stroke="none" /><path d="M 115.07121518719521 114.62390073753431 l 4.68908906465013 4.549916657627043 a27.533704756688465,27.533704756688465 0 0,0 -0.33297344999590617,0.337300346885138 l -4.610074989598688 -4.629957498492846" fill="#ff5407" stroke="none" /><path d="M 114.81725581225074 114.88116024355365 l 4.260593735944957 4.278968988634 a27.038396690220416,27.038396690220416 0 0,0 -0.3326367177428863,0.32555503906004296 l -4.186307065826275 -4.351674130616615" fill="#ff4d07" stroke="none" /><path d="M 114.55890576462653 115.13401014063108 l 4.248741208373182 4.416574540146173 a27.128452702305516,27.128452702305516 0 0,0 -0.3393177330152152,0.3208460957109142 l -4.17208764096716 -4.489055272603008" fill="#ff4e07" stroke="none" /><path d="M 113.75828350139079 115.86535959552629 l 1.6411610721931678 1.8925042910979413 a23.504991448429784,23.504991448429784 0 0,0 -0.30795402953449086,0.2624451048892854 l -1.6083415660816296 -1.9204737862101737" fill="#ff1b02" stroke="none" /><path d="M 113.48314897796784 116.09983520530334 l 2.2664881899454183 2.706347486964223 a24.530054593821408,24.530054593821408 0 0,0 -0.32605099931262277,0.2683177749952701 l -2.2195670620881045 -2.7449603808166714" fill="#ff2a04" stroke="none" /><path d="M 113.20401910651253 116.32954008644616 l 5.81218908969794 7.18799132026517 a30.243849914111067,30.243849914111067 0 0,0 -0.4076331004557201,0.3238483883620268 l -5.687598496524868 -7.286973622632322" fill="#ff790b" stroke="none" /><path d="M 112.92097659922987 116.55440617244103 l 6.390062284176019 8.186972997517161 a31.38553912215076,31.38553912215076 0 0,0 -0.4287433102327898,0.32874208773386016 l -6.248190245449736 -8.295754427078393" fill="#ff880c" stroke="none" /><path d="M 112.34349029814194 116.9893568818739 l 3.456543073515012 4.757523393715924 a26.88062231917838,26.88062231917838 0 0,0 -0.3766777409023588,0.2687495667195167 l -3.3741380047637692 -4.81631722227966" fill="#ff4b07" stroke="none" /><path d="M 112.04921762599082 117.19931262002967 l 5.644519812385478 8.057109088457178 a30.837561220938422,30.837561220938422 0 0,0 -0.43736930022270776,0.30082659283938235 l -5.5049936275398865 -8.153076470661654" fill="#ff810b" stroke="none" /><path d="M 111.45004920935366 117.60387380957326 l 7.0227975598654995 10.797197442003817 a33.880184710184345,33.880184710184345 0 0,0 -0.49161470624783393,0.31377176547214575 l -6.835901051570735 -10.916483636299771" fill="#ffa90f" stroke="none" /><path d="M 111.1453310114006 117.79835938074945 l 6.619480092546183 10.570873622357139 a33.47240497400005,33.47240497400005 0 0,0 -0.49096176001339353,0.30158881257485576 l -6.4365391326004815 -10.683250901760374" fill="#ffa30f" stroke="none" /><line stroke="#e1ed5e" stroke-width="0.3" x1="143.8653032363475" x2="146.44561519142675" y1="172.8068346515853" y2="177.08958963109032" /><path d="M 144.38136562736335 173.6633856474863 a86.0,86.0 0 0,1 -40.68145358897372,12.25698825130547" fill="none" id="id126" stroke="none" /><text fill="#e1ed5e" style="font-size:6.75px; font-family:Arial;" text-anchor="middle"><textPath startOffset="21.466115282336833" xlink:href="#id126">June</textPath></text><path d="M 110.8373102113329 117.98757091392108 l 2.9352057577342645 4.871801275835294 a26.687695536108343,26.687695536108343 0 0,0 -0.39552706185949255,0.23368435987473002 l -2.8509108248463897 -4.921604208003774" fill="#ff4806" stroke="none" /><path d="M 110.5260780823613 118.17145234162733 l 1.1093734144949852 1.915141230459293 a23.2132499419165,23.2132499419165 0 0,0 -0.3474816068098979,0.19730912505952955 l -1.076243040763888 -1.933953521313451" fill="#ff1702" stroke="none" /><path d="M 109.89434966115114 118.52300852407294 l 3.331589082560312 6.236999407578376 a28.071042881016073,28.071042881016073 0 0,0 -0.4281624004932523,0.22399433173331595 l -3.223735779540564 -6.2934231582564095" fill="#ff5b08" stroke="none" /><path d="M 109.57404056367764 118.69057910512821 l 4.061601565653761 7.929116745584771 a29.90884390048641,29.90884390048641 0 0,0 -0.46023457296040415,0.2307711691953554 l -3.9245130850105956 -7.997855755689429" fill="#ff740a" stroke="none" /><path d="M 109.2508944713604 118.85261126421891 l 1.2970361151933356 2.6432598221820096 a23.94433781548203,23.94433781548203 0 0,0 -0.37157887462802736,0.1783804406324776 l -1.2513445725650756 -2.6651945393140473" fill="#ff2203" stroke="none" /><path d="M 108.92500713936063 119.00905698771935 l 5.03063602390635 10.714573710667112 a32.836781175908555,32.836781175908555 0 0,0 -0.5137111205841862,0.2358195795208423 l -4.845456907554745 -10.799580360522029" fill="#ff9b0e" stroke="none" /><path d="M 108.59647513512805 119.15986991738527 l 2.3701140632072653 5.282522944183476 a26.78986090752081,26.78986090752081 0 0,0 -0.4223604321559336,0.18515040142821249 l -2.2788329563935776 -5.322537898906143" fill="#ff4906" stroke="none" /><path d="M 107.59598834532513 119.57807347666477 l 1.0648585766853158 2.7445907640751446 a23.94392633239809,23.94392633239809 0 0,0 -0.3855311678526671,0.1457748990911912 l -1.017457188072374 -2.762513913272967" fill="#ff2203" stroke="none" /><path d="M 106.2309692047433 120.05430185196036 l 1.2937947240668586 4.164063258595327 a25.360427457211824,25.360427457211824 0 0,0 -0.4179942191349397,0.1259382293664932 l -1.2219255304916732 -4.185716857067545" fill="#ff3605" stroke="none" /><path d="M 105.88484417918355 120.15858648285463 l 1.112562058883727 3.8110913048273742 a24.970165143743824,24.970165143743824 0 0,0 -0.4136353419423454,0.11689747932466227 l -1.046795548836776 -3.8296775774905556" fill="#ff3004" stroke="none" /><path d="M 105.53697534728816 120.25689768951611 l 1.7152109064691776 6.275059878188784 a27.505253640598916,27.505253640598916 0 0,0 -0.45777852477538933,0.12090346907744622 l -1.606941938882291 -6.303654696569813" fill="#ff5307" stroke="none" /><path d="M 105.18746579009965 120.34920634021253 l 0.7263583758800879 2.8493328083117073 a23.94045811783345,23.94045811783345 0 0,0 -0.40020091352419807,0.09835964770439701 l -0.6772041776126787 -2.8614137143301344" fill="#ff2103" stroke="none" /><path d="M 104.48393922423573 120.51570834832081 l 0.7008109666825654 3.2064737456861727 a24.282165427396563,24.282165427396563 0 0,0 -0.4091065458665362,0.08573225435477172 l -0.6455129593866511 -3.2180619807674855" fill="#ff2603" stroke="none" /><path d="M 104.13013068566511 120.58985236759428 l 1.453343496453763 7.245322317583601 a28.38964835458085,28.38964835458085 0 0,0 -0.4799640274665394,0.09198624818797538 l -1.3284118544155195 -7.269265764120044" fill="#ff6008" stroke="none" /><path d="M 103.7750983002368 120.6578951692458 l 0.6737904435704585 3.6870807704384876 a24.748140628309475,24.748140628309475 0 0,0 -0.4197178923298461,0.07297333555556962 l -0.6102235797685625 -3.698132684515063" fill="#ff2d04" stroke="none" /><path d="M 103.41894727170886 120.7198165907248 l 0.5746793625975137 3.4827243725065196 a24.529819460630588,24.529819460630588 0 0,0 -0.41719865635691017,0.06515784999923234 l -0.5146448426320864 -3.492100529852858" fill="#ff2a04" stroke="none" /><path d="M 101.62511606390274 120.93702456842531 l 0.5658223028769671 7.289716543843791 a28.311642918525415,28.311642918525415 0 0,0 -0.48620155904522633,0.03353130613559614 l -0.44025798305281044 -7.298376194495671" fill="#ff5e08" stroke="none" /><path d="M 101.26447882468166 120.96189622390904 l 0.736672802865603 12.212192520133787 a33.23439140158976,33.23439140158976 0 0,0 -0.571333896904303,0.029531436461632418 l -0.5263508375478203 -12.223063763357622" fill="#ffa00e" stroke="none" /><line stroke="#e1ed5e" stroke-width="0.3" x1="102.19456741930631" x2="102.32365962044197" y1="184.97166512339345" y2="189.96999836594603" /><path d="M 102.22038585953345 185.97133177190398 a86.0,86.0 0 0,1 -42.740103519485714,-10.115201625700543" fill="none" id="id127" stroke="none" /><text fill="#e1ed5e" style="font-size:6.75px; font-family:Arial;" text-anchor="middle"><textPath startOffset="22.20632615414155" xlink:href="#id127">July</textPath></text><path d="M 99.81925306533755 120.99922214144158 l -0.030350788255650275 3.5261618457791193 a24.526292462768247,24.526292462768247 0 0,0 -0.42213289302505125,-0.0072674005765500285 l 0.09104337117336944 -3.52511696792341" fill="#ff2a04" stroke="none" /><path d="M 99.45781275523022 120.99299961872073 l -0.14018171931766793 5.427709354241608 a26.429519292585,26.429519292585 0 0,0 -0.4546879731158736,-0.015660373145670398 l 0.23359004410818457 -5.424492182669844" fill="#ff4406" stroke="none" /><path d="M 99.09653310690486 120.98055641714683 l -0.7735215511396911 17.96292998403902 a38.979577002854256,38.979577002854256 0 0,0 -0.6700996374393124,-0.03463649710480436 l 1.0826092569924926 -17.946953680172015" fill="#ffe915" stroke="none" /><path d="M 98.73552117531835 120.96189622390904 l -0.9899017560307929 16.41009519238646 a37.439924869347124,37.439924869347124 0 0,0 -0.6429633876916964,-0.04434251965174138 l 1.2722279045014193 -16.390624328218433" fill="#ffd614" stroke="none" /><path d="M 96.58105272829116 120.7198165907248 l -0.4973510710676037 3.014092395923575 a24.054850415168705,24.054850415168705 0 0,0 -0.40795998649753906,-0.07092907291294337 l 0.5491600290371927 -3.0050847444896256" fill="#ff2303" stroke="none" /><path d="M 96.22490169976321 120.6578951692458 l -0.6172555344850773 3.3777134023846975 a24.433649985584097,24.433649985584097 0 0,0 -0.41308271614772335,-0.07916828569485967 l 0.6753058652044956 -3.3665879183413696" fill="#ff2803" stroke="none" /><path d="M 95.51606077576429 120.51570834832081 l -1.4538485731496 6.6519040106846035 a27.80892815654645,27.80892815654645 0 0,0 -0.4667660401030528,-0.10623443106769498 l 1.5681347626455153 -6.625892846039222" fill="#ff5808" stroke="none" /><path d="M 95.16358092515715 120.4354850818985 l -3.0256088770201512 12.784207512458792 a34.13736163764669,34.13736163764669 0 0,0 -0.5706575557347145,-0.14025374317024106 l 3.245219717498076 -12.73023251097452" fill="#ffac0f" stroke="none" /><path d="M 94.81253420990036 120.34920634021253 l -0.435812121372377 1.7095882926684136 a22.76426311404053,22.76426311404053 0 0,0 -0.3788727390814788,-0.10006373391215849 l 0.46517530326534506 -1.7018332094526736" fill="#ff1101" stroke="none" /><path d="M 94.11515582081647 120.15858648285463 l -2.286370297529212 7.831981947390699 a29.158886588357362,29.158886588357362 0 0,0 -0.4806009697947221,-0.14480112976927886 l 2.42084624176418 -7.7914654485156944" fill="#ff6a09" stroke="none" /><path d="M 93.76903079525671 120.05430185196036 l -1.297597027308337 4.17630092731616 a25.373242216111663,25.373242216111663 0 0,0 -0.4159745571830805,-0.13318191716646413 l 1.369292929582358 -4.1533461634899895" fill="#ff3605" stroke="none" /><path d="M 93.08242187328487 119.8279376855182 l -2.18107097791748 6.251630071343456 a27.621174303674515,27.621174303674515 0 0,0 -0.44756882514177465,-0.16048225695977425 l 2.288359363688981 -6.213160273343724" fill="#ff5507" stroke="none" /><path d="M 92.7421414339146 119.70592522655815 l -6.080058907202474 16.508062964779334 a38.59213628767613,38.59213628767613 0 0,0 -0.6213881201590953,-0.2349558169763187 l 6.363317248121852 -16.40095889769638" fill="#ffe415" stroke="none" /><path d="M 92.40401165467489 119.57807347666478 l -0.48904269610755025 1.260469790414096 a22.352015847230607,22.352015847230607 0 0,0 -0.35750338243157864,-0.14225797389847514 l 0.510667154580987 -1.2518649721095543" fill="#ff0b01" stroke="none" /><path d="M 92.06813273071674 119.44442032107085 l -1.1223131882504227 2.7512726352258143 a23.97137813242664,23.97137813242664 0 0,0 -0.38072089344489074,-0.1591413643373436 l 1.1695055411927757 -2.7315462278684977" fill="#ff2203" stroke="none" /><path d="M 91.7346041902142 119.30500536409082 l -1.9126510263378245 4.46726801387657 a25.859497654733033,25.859497654733033 0 0,0 -0.40769262081993723,-0.17872046398574973 l 1.989264321815505 -4.433682996596368" fill="#ff3d05" stroke="none" /><path d="M 91.40352486487194 119.15986991738527 l -2.4067865220359157 5.36425871723729 a26.879446653224264,26.879446653224264 0 0,0 -0.4205123086498332,-0.19303657607484337 l 2.4987668264531684 -5.322035070828373" fill="#ff4b06" stroke="none" /><path d="M 90.42595943632237 118.69057910512821 l -2.0839713854256696 4.068358784680163 a25.57104801289127,25.57104801289127 0 0,0 -0.39003044335527864,-0.20404549398632074 l 2.153692731307444 -4.031883871749126" fill="#ff3805" stroke="none" /><line stroke="#e1ed5e" stroke-width="0.3" x1="58.666819895761336" x2="56.23545636021788" y1="174.27360380694188" y2="178.64263932499728" /><path d="M 58.180547188652646 175.14741091055294 a86.0,86.0 0 0,1 -31.652253787137756,-30.449443065178592" fill="none" id="id128" stroke="none" /><text fill="#e1ed5e" style="font-size:6.75px; font-family:Arial;" text-anchor="middle"><textPath startOffset="22.20632615414155" xlink:href="#id128">August</textPath></text><path d="M 89.4739219176387 118.17145234162733 l -3.6146050037605066 6.239990055717629 a28.211299829341822,28.211299829341822 0 0,0 -0.4181077574734617,-0.24702543286040357 l 3.7214806322623506 -6.1768460505634755" fill="#ff5d08" stroke="none" /><path d="M 89.1626897886671 117.98757091392108 l -1.7414597572112922 2.8904433171822266 a24.374513988092183,24.374513988092183 0 0,0 -0.3575170142796803,-0.2196161505714317 l 1.7909559714232812 -2.8600386997824168" fill="#ff2803" stroke="none" /><path d="M 88.54995079064634 117.60387380957326 l -1.4241234613076532 2.1895180748771437 a23.611918266956415,23.611918266956415 0 0,0 -0.33880325643419246,-0.22454032398767826 l 1.4616014164818074 -2.1646797297981473" fill="#ff1d02" stroke="none" /><path d="M 88.24862548938628 117.40417183066458 l -1.9021245900132906 2.817109026524833 a24.399144189830864,24.399144189830864 0 0,0 -0.3460531960968824,-0.23801854375694428 l 1.9503346707330633 -2.7839496934027874" fill="#ff2803" stroke="none" /><path d="M 87.95078237400918 117.19931262002967 l -1.445524311600132 2.063372519841879 a23.519334573069973,23.519334573069973 0 0,0 -0.3295760681920647,-0.23514377386769905 l 1.4808277076410836 -2.038184484129961" fill="#ff1b02" stroke="none" /><path d="M 87.65650970185807 116.9893568818739 l -2.1286077688398093 2.9297772488055975 a24.621403838456033,24.621403838456033 0 0,0 -0.34073095261187497,-0.25206461301564603 l 2.1787236918702484 -2.8927026870501846" fill="#ff2b04" stroke="none" /><path d="M 87.36589467227662 116.77436683061367 l -2.1607934105376163 2.868896560011676 a24.591600706519255,24.591600706519255 0 0,0 -0.3359344649076023,-0.2575802227106937 l 2.209856603938705 -2.831276995473616" fill="#ff2b04" stroke="none" /><path d="M 87.07902340077011 116.55440617244103 l -0.6445219182341397 0.8257640232956317 a22.04751836511519,22.04751836511519 0 0,0 -0.297161184639157,-0.23608281717445018 l 0.6586405955906549 -0.8145472921160509" fill="#ff0601" stroke="none" /><path d="M 86.79598089348748 116.32954008644616 l -0.9535134727860684 1.1792194748602642 a22.516491514211097,22.516491514211097 0 0,0 -0.2992869229517309,-0.24629276223929328 l 0.973670524282488 -1.1626315937637903" fill="#ff0d01" stroke="none" /><path d="M 86.51685102203217 116.09983520530335 l -6.180079075844478 7.379452295559798 a30.625471082816336,30.625471082816336 0 0,0 -0.40124401861780035,-0.34194885746917747 l 6.306188571039335 -7.271979047867668" fill="#ff7e0b" stroke="none" /><path d="M 86.24171649860922 115.8653595955263 l -4.026263300615635 4.642884054837249 a27.145499858640164,27.145499858640164 0 0,0 -0.35038072956464567,-0.3091702557719206 l 4.105586383086869 -4.57289065729304" fill="#ff4e07" stroke="none" /><path d="M 85.97065885151581 115.62618273729859 l -0.9843668112148407 1.0964089838414788 a22.47346214029054,22.47346214029054 0 0,0 -0.2856274842991967,-0.26091393474502683 l 1.003093844980892 -1.079302282509876" fill="#ff0c01" stroke="none" /><path d="M 85.70375840098266 115.38237550388516 l -1.6525877053511078 1.778140391707005 a23.4275150620537,23.4275150620537 0 0,0 -0.2930270807652811,-0.27707539469176884 l 1.682950620507206 -1.7494303602693055" fill="#ff1a02" stroke="none" /><path d="M 85.44109423537348 115.13401014063109 l -3.3357437570165596 3.4675119587554053 a25.8115304838052,25.8115304838052 0 0,0 -0.317543339511653,-0.3107829917257667 l 3.3949370489040067 -3.409578864107069" fill="#ff3c05" stroke="none" /><path d="M 85.18274418774928 114.88116024355367 l -6.709782915656894 6.73872112572928 a30.509550419740737,30.509550419740737 0 0,0 -0.36896125497305005,-0.3737558033264051 l 6.824784795685477 -6.62222482842221" fill="#ff7c0b" stroke="none" /><path d="M 84.9287848128048 114.62390073753433 l -2.446870109040184 2.374246877096229 a24.409431266929356,24.409431266929356 0 0,0 -0.2899996755078337,-0.3040635003665394 l 2.4873763359269754 -2.331776260147189" fill="#ff2803" stroke="none" /><path d="M 84.67929136418377 114.36230785411682 l -8.915828932934662 8.358091192341728 a33.22087124311746,33.22087124311746 0 0,0 -0.3875034162149054,-0.4205584254470899 l 9.058378757145297 -8.203381512093294" fill="#ffa00e" stroke="none" /><path d="M 84.43433777217949 114.09645910891817 l -5.676796649938139 5.140978306883212 a28.658699508179744,28.658699508179744 0 0,0 -0.32799356225612003,-0.36850424423063444 l 5.764449061842598 -5.042499892911714" fill="#ff6309" stroke="none" /><path d="M 84.19399662182784 113.82643327865904 l -1.7978646190945675 1.5726970699184681 a23.38865930227025,23.38865930227025 0 0,0 -0.2624625121750985,-0.30530319688861807 l 1.8246696408404448 -1.5415167738683198" fill="#ff1a02" stroke="none" /><path d="M 83.95833913139862 113.55231037782056 l -1.294489391070464 1.093610078923979 a22.6946049062593,22.6946049062593 0 0,0 -0.2495369073186213,-0.30058327994889666 l 1.3131222982826218 -1.0711655418613213" fill="#ff1001" stroke="none" /><path d="M 83.72743513129214 113.27417163493432 l -2.900138185422377 2.365756864325257 a24.742673781622848,24.742673781622848 0 0,0 -0.2663750166616544,-0.33234379031660727 l 2.940431114138893 -2.31548524043039" fill="#ff2d04" stroke="none" /><path d="M 83.28015986056508 112.70617746262583 l -2.1861332988151125 1.6613434949168864 a23.745767835832247,23.745767835832247 0 0,0 -0.24451213134156935,-0.32756395753346357 l 2.214406696851767 -1.6234666578741148" fill="#ff1f03" stroke="none" /><path d="M 82.6465618267979 111.8261652097733 l -1.1475552868216043 0.782045510166294 a22.38869662499895,22.38869662499895 0 0,0 -0.21428849978695477,-0.3203322321360432 l 1.1608468920192896 -0.7621763638244299" fill="#ff0b01" stroke="none" /><path d="M 82.44556493220864 111.52570212397912 l -5.612791034287648 3.6851859541771805 a27.71446339713343,27.71446339713343 0 0,0 -0.2583979593939813,-0.4010393712455471 l 5.675393857058675 -3.588024983010185" fill="#ff5608" stroke="none" /><path d="M 82.05923443525364 110.91462005526583 l -2.5129020772770247 1.5287737477302423 a23.941398650596746,23.941398650596746 0 0,0 -0.21116213774395534,-0.35391988888233994 l 2.538845090719212 -1.4852917649617914" fill="#ff2103" stroke="none" /><line stroke="#e1ed5e" stroke-width="0.3" x1="26.63291911575756" x2="22.317208475507996" y1="142.92168965132927" y2="145.44649492493687" /><path d="M 25.769776987707644 143.4266507060508 a86.0,86.0 0 0,1 -11.730757126820373,-40.83630448921669" fill="none" id="id129" stroke="none" /><text fill="#e1ed5e" style="font-size:6.75px; font-family:Arial;" text-anchor="middle"><textPath startOffset="21.46611528233685" xlink:href="#id129">September</textPath></text><path d="M 81.87401531095188 110.60418214915194 l -2.112643029045257 1.235952246482255 a23.447618949869046,23.447618949869046 0 0,0 -0.20080987919588766,-0.35012895069312466 l 2.133604904393522 -1.1994034499308235" fill="#ff1a02" stroke="none" /><path d="M 81.69416730710424 110.29060199501025 l -3.0549319657556304 1.7173263576054518 a24.504542642617146,24.504542642617146 0 0,0 -0.20353191964160502,-0.36946955399191994 l 3.084040294848752 -1.6644862852157092" fill="#ff2904" stroke="none" /><path d="M 81.51974371655577 109.97397251340807 l -7.574930196505961 4.088262868876962 a29.607755849637925,29.607755849637925 0 0,0 -0.23819790894696594,-0.4505806765019141 l 7.644180613677813 -3.9572671772889216" fill="#ff700a" stroke="none" /><path d="M 81.35079622478065 109.6543875284942 l -4.178740779089825 2.1632657001722535 a25.705485414744157,25.705485414744157 0 0,0 -0.20003926763177188,-0.3946964527677292 l 4.215358716507864 -2.0910150357018393" fill="#ff3a05" stroke="none" /><path d="M 81.18737489456691 109.33194174019688 l -3.372213248663479 1.6727754577408398 a24.76430603517854,24.76430603517854 0 0,0 -0.18614119332616158,-0.383505991452172 l 3.4005076986043594 -1.614480510323383" fill="#ff2d04" stroke="none" /><path d="M 81.02952815118164 109.00673069616217 l -9.386403818308244 4.4564422050575665 a31.390594485753446,31.390594485753446 0 0,0 -0.2275450130104496,-0.49011171466983144 l 9.46172344815852 -4.294210423108908" fill="#ff880c" stroke="none" /><path d="M 80.87730276802145 108.67885076344099 l -6.983735862743173 3.16957386234618 a28.66933928506447,28.66933928506447 0 0,0 -0.20008320319475964,-0.45113480278118384 l 7.037260150669212 -3.0488907230723004" fill="#ff6309" stroke="none" /><path d="M 80.73074385275274 108.34839909993369 l -3.1823768961698145 1.3787637785607632 a24.468214564635034,24.468214564635034 0 0,0 -0.164110667304998,-0.38790914000158666 l 3.205638544667119 -1.3237801128930176" fill="#ff2904" stroke="none" /><path d="M 80.58989483394504 108.01547362559985 l -10.207948449067276 4.215409492374822 a32.04408840634748,32.04408840634748 0 0,0 -0.20614631296203298,-0.5116382428356829 l 10.278997376286696 -4.039071881696334" fill="#ff910d" stroke="none" /><path d="M 80.45479744820244 107.68017299344265 l -3.1129477252044433 1.2232145963058898 a24.3446520728577,24.3446520728577 0 0,0 -0.1499001321107732,-0.3913419434972892 l 3.1335421369087255 -1.1694490859754427" fill="#ff2703" stroke="none" /><path d="M 79.97269907076064 106.31721596034903 l -24.347137265166545 7.679822890950104 a46.5296449768739,46.5296449768739 0 0,0 -0.2343614630165653,-0.7659068212016382 l 24.47572550068924 -7.259589097196418" fill="#bcff1f" stroke="none" /><path d="M 79.86692584326677 105.97154293290107 l -3.9090061321037872 1.1594254191441833 a25.077327095461275,25.077327095461275 0 0,0 -0.11918580434964975,-0.4149014206497173 l 3.928384573339541 -1.0919665229898698" fill="#ff3204" stroke="none" /><path d="M 79.4281124754447 104.21870165774334 l -5.735746282562904 1.176236372173458 a26.855110367974113,26.855110367974113 0 0,0 -0.08896722991646827,-0.4536419886244695 l 5.755143445455039 -1.0773306564810334" fill="#ff4a06" stroke="none" /><path d="M 79.35854240842038 103.8639653848113 l -1.9830558525321245 0.3712169616092116 a23.017501560556592,23.017501560556592 0 0,0 -0.0695496363085996,-0.39007129573195637 l 1.9891519311799128 -0.33702691514404154" fill="#ff1402" stroke="none" /><path d="M 79.29508885075956 103.50808413554451 l -5.82348990102347 0.9866882493737992 a26.906486970168874,26.906486970168874 0 0,0 -0.07343964902051758,-0.4573087645543897 l 5.839611304405279 -0.8863002551261958" fill="#ff4b07" stroke="none" /><path d="M 79.23777060512086 103.15116336523772 l -2.3909052583318773 0.3628768816930559 a23.41828608431391,23.41828608431391 0 0,0 -0.05705803957469975,-0.3990637958919098 l 2.3967973489231764 -0.32166761382074543" fill="#ff1a02" stroke="none" /><path d="M 79.1416061653843 102.43462659150553 l -7.026514666338514 0.8201465361096703 a28.07421717909218,28.07421717909218 0 0,0 -0.05189411895485666,-0.4804750911605318 l 7.039591086794422 -0.6990751230643565" fill="#ff5b08" stroke="none" /><path d="M 79.10278846688536 102.07522291339032 l -2.9244861096879537 0.2904196368543716 a23.9388709687954,23.9388709687954 0 0,0 -0.037191206191807165,-0.4104018612333695 l 2.929051912156836 -0.2400363870724359" fill="#ff2103" stroke="none" /><path d="M 79.07016306316243 101.71520430193888 l -4.724798890045011 0.38719820925779924 a25.740637826772154,25.740637826772154 0 0,0 -0.03238839207420498,-0.44191387715519065 l 4.730763840783551 -0.30581119560584796" fill="#ff3b05" stroke="none" /><path d="M 79.04373962182676 101.35467743843564 l -18.294856196765732 1.1826360467918282 a39.333040971958496,39.333040971958496 0 0,0 -0.03786020422540528,-0.6760193794912805 l 18.312502751878668 -0.8675449509651101" fill="#ffed16" stroke="none" /><path d="M 79.0095281055655 100.63252640178507 l -7.398810689872038 0.22295559274179877 a28.402169196992162,28.402169196992162 0 0,0 -0.01051953769638177,-0.4888015810211841 l 7.401552290253427 -0.09556419593048585" fill="#ff6008" stroke="none" /><line stroke="#e1ed5e" stroke-width="0.3" x1="15.007084014347285" x2="10.007500721073583" y1="101.09737516637583" y2="101.16192664675087" /><path d="M 14.007167355692545 101.11028546245083 a86.0,86.0 0 0,1 10.666146001902534,-42.60595125391555" fill="none" id="id130" stroke="none" /><text fill="#e1ed5e" style="font-size:6.75px; font-family:Arial;" text-anchor="middle"><textPath startOffset="22.20632615414155" xlink:href="#id130">October</textPath></text><path d="M 79.00175016825051 100.2711162175752 l -7.34565403315956 0.09484247273194474 a28.34626628087406,28.34626628087406 0 0,0 -0.0020999220612202434,-0.48794793280241555 l 7.346198252510283 0.031614938274146194" fill="#ff5f08" stroke="none" /><path d="M 79.00486145842228 99.54816195383935 l -5.9607745260752285 -0.12828230259744708 a26.962154753096154,26.962154753096154 0 0,0 0.013979627575518698,-0.46391578104955805 l 5.957683204044065 0.23086823107199955" fill="#ff4c07" stroke="none" /><path d="M 79.03285615573316 98.82574320788736 l -1.942682910515676 -0.10879920601193165 a22.94572715405796,22.94572715405796 0 0,0 0.02548003791460095,-0.3941649088071402 l 1.9405222815966618 0.14222317907208368" fill="#ff1302" stroke="none" /><path d="M 79.05617556472873 98.46500227214037 l -13.73127636709992 -1.0063815273687409 a34.76810642202862,34.76810642202862 0 0,0 0.04888315660614541,-0.5964983270902751 l 13.711918726674277 1.2425937716667943" fill="#ffb410" stroke="none" /><path d="M 79.08570108090925 98.10471618934814 l -7.062149228144057 -0.6399821075661865 a28.09108798553371,28.09108798553371 0 0,0 0.04778544788365128,-0.4811929389300604 l 7.050086654578177 0.7614505772006772" fill="#ff5b08" stroke="none" /><path d="M 79.12142395522702 97.74499172005258 l -9.19069333028537 -0.9926486132869996 a30.244143830599597,30.244143830599597 0 0,0 0.06035816150710063,-0.5171118676847756 l 9.17224481577468 1.150704219296637" fill="#ff790b" stroke="none" /><path d="M 79.16333360222342 97.38593545837743 l -3.8947248952253886 -0.48861281615900565 a24.925254704296684,24.925254704296684 0 0,0 0.05707171288976823,-0.42525055142457446 l 3.8857371832777865 0.5555817096482395" fill="#ff2f04" stroke="none" /><path d="M 79.32604984820605 96.31383870115002 l -13.793808893766437 -2.459433448112598 a35.011351707934715,35.011351707934715 0 0,0 0.11089308160907178,-0.592395276166543 l 13.749430088247504 2.6965068017417138" fill="#ffb711" stroke="none" /><path d="M 79.3925641242962 95.95851677861259 l -1.1811463965117555 -0.23164373152957488 a22.203646803821474,22.203646803821474 0 0,0 0.07678306972134742,-0.3744215169134688 l 1.1769840308754134 0.2519409046064462" fill="#ff0901" stroke="none" /><path d="M 79.46518482838121 95.60439243477599 l -8.694081444321993 -1.8610233328105874 a29.891032561281587,29.891032561281587 0 0,0 0.11202819242274867,-0.5022004201101495 l 8.660758864897208 2.010401922470696" fill="#ff740a" stroke="none" /><path d="M 79.54389044137918 95.25157060432595 l -1.3695647006010616 -0.3179138860678875 a22.405978914524418,22.405978914524418 0 0,0 0.09044248047616495,-0.3749424709377161 l 1.3638894198640819 0.3414415886650004" fill="#ff0b01" stroke="none" /><path d="M 79.62865764111835 94.90015583598534 l -9.740592818501678 -2.438499366627203 a31.041186564190895,31.041186564190895 0 0,0 0.1342216001488888,-0.5172105778102369 l 9.697174886482482 2.605806369986304" fill="#ff830c" stroke="none" /><path d="M 79.71946130924805 94.55025226153421 l -1.1688247290245575 -0.3140843554894888 a22.210289316462216,22.210289316462216 0 0,0 0.10239284930391251,-0.36836155793899095 l 1.1632451091542841 0.3341572168474224" fill="#ff0901" stroke="none" /><path d="M 79.91906864156998 93.8553929516997 l -10.417461049701219 -3.1876611422465704 a31.894249780495706,31.894249780495706 0 0,0 0.16515832204552744,-0.5235970144657267 l 10.361047243887489 3.3665083231387114" fill="#ff8f0d" stroke="none" /><path d="M 80.38941819471856 92.48833698450439 l -3.0103887055870286 -1.1531032442869067 a24.223676046179413,24.223676046179413 0 0,0 0.1525012485181568,-0.3880990433723678 l 2.990093907187181 1.2047512925550379" fill="#ff2503" stroke="none" /><path d="M 80.52162464483688 92.15188598940014 l -5.9220107502064385 -2.3860622198811137 a27.384630313706865,27.384630313706865 0 0,0 0.17992786171096725,-0.4357095888830752 l 5.880061201609272 2.4876463792175" fill="#ff5207" stroke="none" /><path d="M 80.65960295795068 91.81776055985345 l -18.03587626889715 -7.630342739299641 a40.5835380640514,40.5835380640514 0 0,0 0.2777253070122559,-0.6410282995975314 l 17.901860252042212 7.939670183483772" fill="#fffc17" stroke="none" /><path d="M 80.803312248108 91.48605970444005 l -4.696317794036684 -2.0828681397635016 a26.13748386958319,26.13748386958319 0 0,0 0.18594664431064278,-0.4097087825767699 l 4.65976883276269 2.1633989311823427" fill="#ff4006" stroke="none" /><path d="M 81.26839172434947 90.50648371742162 l -2.143013871460838 -1.0861180088284892 a23.40253216052879,23.40253216052879 0 0,0 0.18520381358318766,-0.35775481865283365 l 2.1240006247175365 1.1228455497416583" fill="#ff1a02" stroke="none" /><path d="M 81.6062741919709 89.86733742301443 l -4.102239205181451 -2.259825231168812 a25.683500461402232,25.683500461402232 0 0,0 0.21664932626665415,-0.3853949770469244 l 4.062732237622367 2.330103718150521" fill="#ff3a05" stroke="none" /><line stroke="#e1ed5e" stroke-width="0.3" x1="26.266209847984243" x2="21.928928074336255" y1="57.711370442889674" y2="55.22380399835377" /><path d="M 25.398753493254645 57.213857153982495 a86.0,86.0 0 0,1 29.58750427330803,-30.492523968695096" fill="none" id="id131" stroke="none" /><text fill="#e1ed5e" style="font-size:6.75px; font-family:Arial;" text-anchor="middle"><textPath startOffset="21.46611528233685" xlink:href="#id131">November</textPath></text><path d="M 81.96595687620814 89.24020034530311 l -9.179612376663824 -5.4769077240573365 a31.689331204693705,31.689331204693705 0 0,0 0.2835202236303596,-0.4660327010249571 l 9.083976354747248 5.6341081982893675" fill="#ff8c0c" stroke="none" /><path d="M 82.15384107792192 88.93136811851018 l -3.00134942433621 -1.861511604303842 a24.531759309454873,24.531759309454873 0 0,0 0.22565994829156574,-0.3569398458434585 l 2.968861879798682 1.912899097861516" fill="#ff2a04" stroke="none" /><path d="M 82.34701348167596 88.62581576622439 l -7.682345811962873 -4.949894258523228 a30.138921727706432,30.138921727706432 0 0,0 0.28474587987910666,-0.4336875103478042 l 7.596003296725846 5.0813998328487" fill="#ff770b" stroke="none" /><path d="M 82.95767976084542 87.72973835380427 l -1.9780854244010737 -1.4241972557330227 a23.437449439365963,23.437449439365963 0 0,0 0.23854567678637567,-0.3253760350535957 l 1.9532771351010645 1.458035734458119" fill="#ff1a02" stroke="none" /><path d="M 83.39014120810768 87.1503855733568 l -14.753089668965764 -11.413192383094659 a39.65246941169116,39.65246941169116 0 0,0 0.42229109420462424,-0.536266805307829 l 14.55444449416717 11.665451582355535" fill="#fff116" stroke="none" /><path d="M 83.6137871275137 86.86637796730984 l -1.8800524754322239 -1.5068703675520971 a23.40940980636035,23.40940980636035 0 0,0 0.2547183543026202,-0.3122545841377778 l 1.8538356290532112 1.539009121297957" fill="#ff1a02" stroke="none" /><path d="M 84.07557802195018 86.31012108654704 l -4.493544212060096 -3.863002138485386 a26.92576789181634,26.92576789181634 0 0,0 0.3051691351269878,-0.34886107526921434 l 4.4263832133552645 3.9397787699575435" fill="#ff4b07" stroke="none" /><path d="M 84.80347519578584 85.50635884689758 l -4.8336562652106245 -4.610085547057468 a27.67960490159396,27.67960490159396 0 0,0 0.33180693906235853,-0.3419562173571319 l 4.753585062445147 4.692605959964724" fill="#ff5607" stroke="none" /><path d="M 85.05521093208273 85.24692304244772 l -18.05472106357762 -17.823114671448593 a46.36998954030528,46.36998954030528 0 0,0 0.5656348222305885,-0.5632058065457759 l 17.74525044117972 18.13125632864448" fill="#beff1f" stroke="none" /><path d="M 85.57189188830299 84.74124197986013 l -2.022309635357886 -2.1387373263932243 a23.94345606601644,23.94345606601644 0 0,0 0.30190659052311347,-0.28058927292237185 l 1.9851951610399166 2.173231185390244" fill="#ff2203" stroke="none" /><path d="M 86.10567301691215 84.25364557470407 l -5.791916307497647 -6.563942758114137 a29.753949911031945,29.753949911031945 0 0,0 0.38695182073600504,-0.33556080585570214 l 5.678070688114869 6.6626685573895195" fill="#ff720a" stroke="none" /><path d="M 86.37877921826538 84.01681056812374 l -3.492616476755889 -4.098248729345735 a26.384608853137863,26.384608853137863 0 0,0 0.3482045468537662,-0.2916112941633462 l 3.4215543929430123 4.157761180902893" fill="#ff4406" stroke="none" /><path d="M 86.65592168130627 83.78471172551755 l -1.8714129391691985 -2.2740799000492977 a23.9451019983522,23.9451019983522 0 0,0 0.3205184187030091,-0.25917027069589754 l 1.831991121901689 2.3059562680093295" fill="#ff2203" stroke="none" /><path d="M 86.93701828274178 83.55741782278169 l -7.501616227849691 -9.442403270412132 a33.059569874213075,33.059569874213075 0 0,0 0.44861434069442513,-0.3501506087147583 l 7.337969331995841 9.570132268350113" fill="#ff9e0e" stroke="none" /><path d="M 87.80319425747018 82.90503203632743 l -8.137796903425867 -11.405886122613946 a35.011351707934715,35.011351707934715 0 0,0 0.4936081429430429,-0.34580404854991365 l 7.940257620899164 11.544275013927802" fill="#ffb711" stroke="none" /><path d="M 88.39885842347998 82.49532879139004 l -7.793947518311741 -11.760091696608137 a35.10834414914909,35.10834414914909 0 0,0 0.5066183784431176,-0.3295186858464086 l 7.5903621140843365 11.89250930661408" fill="#ffb811" stroke="none" /><path d="M 88.70189139769569 82.29822771554957 l -6.73150248585759 -10.546855967782056 a33.511966133355976,33.511966133355976 0 0,0 0.48892498045763405,-0.3061647779085079 l 6.548958353027714 10.661165087013494" fill="#ffa40f" stroke="none" /><path d="M 89.00827224532344 82.1063720568725 l -5.847076559130309 -9.518559305614698 a32.17100154609403,32.17100154609403 0 0,0 0.4743505926876843,-0.2857909245493259 l 5.682363900224976 9.617796839622642" fill="#ff920d" stroke="none" /><line stroke="#e1ed5e" stroke-width="0.3" x1="56.762969772571076" x2="54.21961505331055" y1="26.818313649435495" y2="22.513508569990535" /><path d="M 56.25429882871897 25.957352633546506 a86.0,86.0 0 0,1 42.265352541879196,-11.944610805530505" fill="none" id="id132" stroke="none" /><text fill="#e1ed5e" style="font-size:6.75px; font-family:Arial;" text-anchor="middle"><textPath startOffset="22.20632615414155" xlink:href="#id132">December</textPath></text><path d="M 89.3179101791058 81.91981866633112 l -2.991720324511593 -5.063695107767248 a26.881445285346256,26.881445285346256 0 0,0 0.4004097105386202,-0.2319431490024599 l 2.904113881507653 5.114442414159755" fill="#ff4b07" stroke="none" /><path d="M 89.94658935756843 81.56283822128135 l -2.8535535599143476 -5.23319204791325 a26.960626387355806,26.960626387355806 0 0,0 0.4093585367765752,-0.21866515336214185 l 2.763049976609467 5.281535927777141" fill="#ff4c07" stroke="none" /><path d="M 90.26544431104013 81.39251694778311 l -2.576203490518627 -4.924381175738009 a26.557549314987966,26.557549314987966 0 0,0 0.4068863317829329,-0.20842298269008447 l 2.4910566711469304 4.967996683740599" fill="#ff4606" stroke="none" /><path d="M 90.58718382345135 81.22770947309562 l -1.6038797339417619 -3.198670384191932 a24.578256897940065,24.578256897940065 0 0,0 0.3798262176276546,-0.18637907542273735 l 1.5485822493036812 3.225804619749499" fill="#ff2b04" stroke="none" /><path d="M 91.23893434514133 80.91482961587045 l -26.28319696457602 -57.25551115238866 a84.0,84.0 0 0,0 1.3192715261329024,-0.5919186779338843 l 25.293743319976343 57.69945016083907" fill="#4dd2ff" stroke="none" /><path d="M 91.90106846888425 80.62456947434976 l -0.7595773414181515 -1.817170320672903 a22.96953438962876,22.96953438962876 0 0,0 0.3661082699168171,-0.14934475573027448 l 0.7281852019129539 1.8299759625867544" fill="#ff1402" stroke="none" /><path d="M 92.23578459929587 80.48803036053334 l -2.011425526095867 -5.054840930053475 a26.440335419362846,26.440335419362846 0 0,0 0.42432562663717244,-0.16463175084108417 l 1.9241167344590182 5.08871538478511" fill="#ff4506" stroke="none" /><path d="M 93.25333710446033 80.11325718540243 l -6.077286375761496 -17.913660877487676 a39.91646520168736,39.91646520168736 0 0,0 0.6525718180524944,-0.21514266842451812 l 5.768031735466592 18.01561727017143" fill="#fff417" stroke="none" /><path d="M 93.59665428221793 80.00007090966166 l -0.5408112290941516 -1.6891460667358986 a22.773609658375733,22.773609658375733 0 0,0 0.37437062715464414,-0.11631877619978102 l 0.5116552292287787 1.698204977818205" fill="#ff1101" stroke="none" /><path d="M 93.94186890950719 79.89281104454417 l -1.0270242492304968 -3.408736181612224 a24.560092858949012,24.560092858949012 0 0,0 0.4058377369369739,-0.11847516421540318 l 0.9681962945701016 3.4259096747463262" fill="#ff2a04" stroke="none" /><path d="M 94.63758080256005 79.69619591428918 l -0.5569198962710401 -2.108673725232056 a23.180977911476084,23.180977911476084 0 0,0 0.38667097685616375,-0.09857104158907513 l 0.520540030729877 2.1179477629899943" fill="#ff1702" stroke="none" /><path d="M 95.692805502759 79.44645832069477 l -7.568858465851521 -36.11790645681093 a57.90244958399153,57.90244958399153 0 0,0 0.9772653860334396,-0.1960302428028837 l 6.946026670350944 36.242840655691026" fill="#43ff2d" stroke="none" /><path d="M 98.19473922651362 79.07773832637324 l -0.37597015340992634 -4.357346066920131 a25.37353613260019,25.37353613260019 0 0,0 0.4354700644170669,-0.03380085812671768 l 0.30090989963052517 4.363172187235311" fill="#ff3605" stroke="none" /><path d="M 98.55514903715128 79.0497635885617 l -0.6150167858942195 -8.9176997439811 a29.93888216561401,29.93888216561401 0 0,0 0.5144326143177196,-0.0310319801501747 l 0.4614221227368769 8.92696499351158" fill="#ff750a" stroke="none" /></svg>